
<svg xmlns="http://www.w3.org/2000/svg" width="98" height="96" viewBox="0 0 98 96" fill="none">
  <path fill-rule="evenodd" clip-rule="evenodd" 
    d="M49 0C21.9 0 0 21.5 0 48.2c0 21.3 13.7 39.3 32.7 45.7 2.4.4 3.3-1 3.3-2.3 
    0-1.1 0-4.2-.1-8.3-13.3 2.8-16.1-6.3-16.1-6.3-2.2-5.5-5.3-7-5.3-7-4.3-2.9.3-2.8.3-2.8 
    4.7.3 7.2 4.7 7.2 4.7 4.2 7.1 11 5 13.7 3.8.4-3 1.6-5 2.8-6.2-10.6-1.2-21.8-5.2-21.8-23.1 
    0-5.1 1.8-9.2 4.7-12.5-.5-1.2-2-6 .4-12.5 0 0 4-1.3 13.2 4.8 3.8-1 7.9-1.5 12-1.5 
    4.1 0 8.2.5 12 1.5 9.2-6.1 13.2-4.8 13.2-4.8 2.4 6.5.9 11.3.4 12.5 2.9 3.3 4.7 7.4 4.7 12.5 
    0 17.9-11.2 21.8-21.8 23 1.7 1.5 3.2 4.4 3.2 8.8 0 6.4-.1 11.5-.1 13.1 0 1.3.9 2.8 
    3.3 2.3C84.3 87.5 98 69.5 98 48.2 98 21.5 76.1 0 49 0Z" 
    fill="#181717"/>
</svg>
