<svg width="240" height="188" viewBox="0 0 240 188" fill="none" xmlns="http://www.w3.org/2000/svg">
<g clip-path="url(#clip0_376_21)">
<path d="M167.242 83.3333C167.242 92.5 160.024 100 151.202 100H87.0403C78.2181 100 71 92.5 71 83.3333V16.6667C71 7.5 78.2181 0 87.0403 0H151.202C160.024 0 167.242 7.5 167.242 16.6667V83.3333Z" fill="#563D7C"/>
<path d="M97.1518 21.7323H124.436C129.468 21.7323 133.51 22.9251 136.545 25.327C139.58 27.729 141.105 31.3401 141.105 36.1931C141.105 39.1342 140.414 41.6506 139.03 43.7421C137.646 45.8336 135.664 47.4676 133.085 48.6114V48.7748C136.545 49.5427 139.171 51.2421 140.948 53.8728C142.725 56.5199 143.622 59.8205 143.622 63.8074C143.622 66.095 143.228 68.2355 142.442 70.2127C141.656 72.2061 140.429 73.9218 138.747 75.3597C137.064 76.7976 134.925 77.9414 132.299 78.7911C129.673 79.6408 126.559 80.0656 122.942 80.0656H97.1518V21.7323ZM106.98 46.1604H123.021C125.38 46.1604 127.345 45.4741 128.918 44.0689C130.491 42.6636 131.277 40.6702 131.277 38.0558C131.277 35.1146 130.569 33.0395 129.154 31.8466C127.739 30.6538 125.694 30.0493 123.021 30.0493H106.98V46.1604ZM106.98 71.7323H124.357C127.345 71.7323 129.673 70.9316 131.308 69.314C132.959 67.7127 133.793 65.4251 133.793 62.4839C133.793 59.5917 132.975 57.3859 131.308 55.8172C129.641 54.2486 127.345 53.497 124.357 53.497H106.98V71.7323Z" fill="white"/>
</g>
<path d="M44.4564 162.336C45.5604 162.576 46.4084 163.056 47.0004 163.776C47.6084 164.48 47.9124 165.392 47.9124 166.512C47.9124 167.952 47.3764 169.064 46.3044 169.848C45.2484 170.616 43.6804 171 41.6004 171H33.8724V154.2H41.1204C42.9924 154.2 44.4404 154.576 45.4644 155.328C46.5044 156.08 47.0244 157.144 47.0244 158.52C47.0244 159.448 46.7924 160.24 46.3284 160.896C45.8804 161.536 45.2564 162.016 44.4564 162.336ZM35.6484 155.664V161.76H41.0004C42.3604 161.76 43.4084 161.504 44.1444 160.992C44.8804 160.464 45.2484 159.704 45.2484 158.712C45.2484 157.72 44.8804 156.968 44.1444 156.456C43.4084 155.928 42.3604 155.664 41.0004 155.664H35.6484ZM41.5764 169.536C43.0804 169.536 44.2164 169.28 44.9844 168.768C45.7524 168.256 46.1364 167.456 46.1364 166.368C46.1364 164.272 44.6164 163.224 41.5764 163.224H35.6484V169.536H41.5764ZM62.5592 171.144C60.8952 171.144 59.3832 170.776 58.0232 170.04C56.6792 169.288 55.6232 168.264 54.8552 166.968C54.1032 165.672 53.7272 164.216 53.7272 162.6C53.7272 160.984 54.1032 159.528 54.8552 158.232C55.6232 156.936 56.6792 155.92 58.0232 155.184C59.3832 154.432 60.8952 154.056 62.5592 154.056C64.2232 154.056 65.7192 154.424 67.0472 155.16C68.3912 155.896 69.4472 156.92 70.2152 158.232C70.9832 159.528 71.3672 160.984 71.3672 162.6C71.3672 164.216 70.9832 165.68 70.2152 166.992C69.4472 168.288 68.3912 169.304 67.0472 170.04C65.7192 170.776 64.2232 171.144 62.5592 171.144ZM62.5592 169.56C63.8872 169.56 65.0872 169.264 66.1592 168.672C67.2312 168.064 68.0712 167.232 68.6792 166.176C69.2872 165.104 69.5912 163.912 69.5912 162.6C69.5912 161.288 69.2872 160.104 68.6792 159.048C68.0712 157.976 67.2312 157.144 66.1592 156.552C65.0872 155.944 63.8872 155.64 62.5592 155.64C61.2312 155.64 60.0232 155.944 58.9352 156.552C57.8632 157.144 57.0152 157.976 56.3912 159.048C55.7832 160.104 55.4792 161.288 55.4792 162.6C55.4792 163.912 55.7832 165.104 56.3912 166.176C57.0152 167.232 57.8632 168.064 58.9352 168.672C60.0232 169.264 61.2312 169.56 62.5592 169.56ZM85.9411 171.144C84.2771 171.144 82.7651 170.776 81.4051 170.04C80.0611 169.288 79.0051 168.264 78.2371 166.968C77.4851 165.672 77.1091 164.216 77.1091 162.6C77.1091 160.984 77.4851 159.528 78.2371 158.232C79.0051 156.936 80.0611 155.92 81.4051 155.184C82.7651 154.432 84.2771 154.056 85.9411 154.056C87.6051 154.056 89.1011 154.424 90.4291 155.16C91.7731 155.896 92.8291 156.92 93.5971 158.232C94.3651 159.528 94.7491 160.984 94.7491 162.6C94.7491 164.216 94.3651 165.68 93.5971 166.992C92.8291 168.288 91.7731 169.304 90.4291 170.04C89.1011 170.776 87.6051 171.144 85.9411 171.144ZM85.9411 169.56C87.2691 169.56 88.4691 169.264 89.5411 168.672C90.6131 168.064 91.4531 167.232 92.0611 166.176C92.6691 165.104 92.9731 163.912 92.9731 162.6C92.9731 161.288 92.6691 160.104 92.0611 159.048C91.4531 157.976 90.6131 157.144 89.5411 156.552C88.4691 155.944 87.2691 155.64 85.9411 155.64C84.6131 155.64 83.4051 155.944 82.3171 156.552C81.2451 157.144 80.3971 157.976 79.7731 159.048C79.1651 160.104 78.8611 161.288 78.8611 162.6C78.8611 163.912 79.1651 165.104 79.7731 166.176C80.3971 167.232 81.2451 168.064 82.3171 168.672C83.4051 169.264 84.6131 169.56 85.9411 169.56ZM105.009 155.736H99.1047V154.2H112.689V155.736H106.785V171H105.009V155.736ZM123.149 171.144C121.901 171.144 120.701 170.944 119.549 170.544C118.413 170.144 117.533 169.616 116.909 168.96L117.605 167.592C118.213 168.2 119.021 168.696 120.029 169.08C121.037 169.448 122.077 169.632 123.149 169.632C124.653 169.632 125.781 169.36 126.533 168.816C127.285 168.256 127.661 167.536 127.661 166.656C127.661 165.984 127.453 165.448 127.037 165.048C126.637 164.648 126.141 164.344 125.549 164.136C124.957 163.912 124.133 163.672 123.077 163.416C121.813 163.096 120.805 162.792 120.053 162.504C119.301 162.2 118.653 161.744 118.109 161.136C117.581 160.528 117.317 159.704 117.317 158.664C117.317 157.816 117.541 157.048 117.989 156.36C118.437 155.656 119.125 155.096 120.053 154.68C120.981 154.264 122.133 154.056 123.509 154.056C124.469 154.056 125.405 154.192 126.317 154.464C127.245 154.72 128.045 155.08 128.717 155.544L128.117 156.96C127.413 156.496 126.661 156.152 125.861 155.928C125.061 155.688 124.277 155.568 123.509 155.568C122.037 155.568 120.925 155.856 120.173 156.432C119.437 156.992 119.069 157.72 119.069 158.616C119.069 159.288 119.269 159.832 119.669 160.248C120.085 160.648 120.597 160.96 121.205 161.184C121.829 161.392 122.661 161.624 123.701 161.88C124.933 162.184 125.925 162.488 126.677 162.792C127.445 163.08 128.093 163.528 128.621 164.136C129.149 164.728 129.413 165.536 129.413 166.56C129.413 167.408 129.181 168.184 128.717 168.888C128.269 169.576 127.573 170.128 126.629 170.544C125.685 170.944 124.525 171.144 123.149 171.144ZM139.562 155.736H133.658V154.2H147.242V155.736H141.338V171H139.562V155.736ZM164.8 171L160.96 165.6C160.528 165.648 160.08 165.672 159.616 165.672H155.104V171H153.328V154.2H159.616C161.76 154.2 163.44 154.712 164.656 155.736C165.872 156.76 166.48 158.168 166.48 159.96C166.48 161.272 166.144 162.384 165.472 163.296C164.816 164.192 163.872 164.84 162.64 165.24L166.744 171H164.8ZM159.568 164.16C161.232 164.16 162.504 163.792 163.384 163.056C164.264 162.32 164.704 161.288 164.704 159.96C164.704 158.6 164.264 157.56 163.384 156.84C162.504 156.104 161.232 155.736 159.568 155.736H155.104V164.16H159.568ZM184.457 166.512H175.097L173.081 171H171.233L178.913 154.2H180.665L188.345 171H186.473L184.457 166.512ZM183.809 165.072L179.777 156.048L175.745 165.072H183.809ZM200.661 154.2C202.805 154.2 204.485 154.712 205.701 155.736C206.917 156.76 207.525 158.168 207.525 159.96C207.525 161.752 206.917 163.16 205.701 164.184C204.485 165.192 202.805 165.696 200.661 165.696H196.149V171H194.373V154.2H200.661ZM200.613 164.136C202.277 164.136 203.549 163.776 204.429 163.056C205.309 162.32 205.749 161.288 205.749 159.96C205.749 158.6 205.309 157.56 204.429 156.84C203.549 156.104 202.277 155.736 200.613 155.736H196.149V164.136H200.613Z" fill="black"/>
<defs>
<clipPath id="clip0_376_21">
<rect width="96.242" height="100" fill="white" transform="translate(71)"/>
</clipPath>
</defs>
</svg>
