<svg width="166" height="169" viewBox="0 0 166 169" fill="none" xmlns="http://www.w3.org/2000/svg">
<path d="M41.0156 0L48.6849 90L83.1215 100L117.546 90.0062L125.227 0H41.0156Z" fill="#FF5722"/>
<path d="M108.596 29.4316H83.1215H68.2341L69.1965 40.7379H83.1215H107.633L104.74 74.6379L83.1215 80.9066L83.1035 80.9129L61.4972 74.6379L59.9874 56.9066H70.574L71.362 66.1066L83.1095 69.4254L83.1215 69.4191L94.8811 66.1004L96.1082 51.7816H83.1215H59.5543L56.7031 18.4004H83.1215H109.534L108.596 29.4316Z" fill="#FAFAFA"/>
<path d="M49.5492 135.2H51.3012V152H49.5492V135.2ZM39.0372 152H37.2612V135.2H39.0372V152ZM49.7172 144.248H38.8452V142.688H49.7172V144.248ZM63.2978 152V136.736H57.3938V135.2H70.9778V136.736H65.0738V152H63.2978ZM77.0641 152V135.2H78.5281L86.2081 148.304H85.4401L93.0481 135.2H94.5121V152H92.8081V137.864H93.2161L86.2081 149.864H85.3681L78.3121 137.864H78.7681V152H77.0641ZM103.235 152V135.2H105.011V150.464H114.419V152H103.235ZM124.433 152.144C123.233 152.144 122.089 151.952 121.001 151.568C119.913 151.168 119.049 150.64 118.409 149.984L119.249 148.616C119.777 149.176 120.497 149.64 121.409 150.008C122.337 150.376 123.337 150.56 124.409 150.56C125.833 150.56 126.913 150.248 127.649 149.624C128.401 148.984 128.777 148.152 128.777 147.128C128.777 146.408 128.601 145.792 128.249 145.28C127.913 144.752 127.337 144.344 126.521 144.056C125.705 143.768 124.585 143.624 123.161 143.624H119.585L120.449 135.2H129.641V136.736H121.145L122.033 135.896L121.289 142.952L120.401 142.088H123.545C125.241 142.088 126.601 142.296 127.625 142.712C128.649 143.128 129.385 143.712 129.833 144.464C130.297 145.2 130.529 146.064 130.529 147.056C130.529 148 130.305 148.864 129.857 149.648C129.409 150.416 128.737 151.024 127.841 151.472C126.945 151.92 125.809 152.144 124.433 152.144Z" fill="black"/>
</svg>
