<svg width="179" height="302" viewBox="0 0 179 302" fill="none" xmlns="http://www.w3.org/2000/svg">
<path d="M54.0156 133L61.6849 223L96.1215 233L130.546 223.006L138.227 133H54.0156Z" fill="#FF5722"/>
<path d="M121.596 162.432H96.1215H81.2341L82.1965 173.738H96.1215H120.633L117.74 207.638L96.1215 213.907L96.1035 213.913L74.4972 207.638L72.9874 189.907H83.574L84.362 199.107L96.1095 202.425L96.1215 202.419L107.881 199.1L109.108 184.782H96.1215H72.5543L69.7031 151.4H96.1215H122.534L121.596 162.432Z" fill="#FAFAFA"/>
<path d="M62.5492 268.2H64.3012V285H62.5492V268.2ZM52.0372 285H50.2612V268.2H52.0372V285ZM62.7172 277.248H51.8452V275.688H62.7172V277.248ZM76.2978 285V269.736H70.3938V268.2H83.9778V269.736H78.0738V285H76.2978ZM90.0641 285V268.2H91.5281L99.2081 281.304H98.4401L106.048 268.2H107.512V285H105.808V270.864H106.216L99.2081 282.864H98.3681L91.3121 270.864H91.7681V285H90.0641ZM116.235 285V268.2H118.011V283.464H127.419V285H116.235ZM137.433 285.144C136.233 285.144 135.089 284.952 134.001 284.568C132.913 284.168 132.049 283.64 131.409 282.984L132.249 281.616C132.777 282.176 133.497 282.64 134.409 283.008C135.337 283.376 136.337 283.56 137.409 283.56C138.833 283.56 139.913 283.248 140.649 282.624C141.401 281.984 141.777 281.152 141.777 280.128C141.777 279.408 141.601 278.792 141.249 278.28C140.913 277.752 140.337 277.344 139.521 277.056C138.705 276.768 137.585 276.624 136.161 276.624H132.585L133.449 268.2H142.641V269.736H134.145L135.033 268.896L134.289 275.952L133.401 275.088H136.545C138.241 275.088 139.601 275.296 140.625 275.712C141.649 276.128 142.385 276.712 142.833 277.464C143.297 278.2 143.529 279.064 143.529 280.056C143.529 281 143.305 281.864 142.857 282.648C142.409 283.416 141.737 284.024 140.841 284.472C139.945 284.92 138.809 285.144 137.433 285.144Z" fill="black"/>
</svg>
