<svg width="240" height="169" viewBox="0 0 240 169" fill="none" xmlns="http://www.w3.org/2000/svg">
<path d="M63 0H159.242V100H63V0Z" fill="#F7DF1E"/>
<path d="M88.3058 83.5671L95.6709 78.9358C97.0917 81.5534 98.3843 83.7682 101.485 83.7682C104.457 83.7682 106.33 82.5602 106.33 77.8618V45.9095H115.374V77.9947C115.374 87.728 109.884 92.1583 101.872 92.1583C94.6373 92.1583 90.4376 88.2656 88.3058 83.5671Z" fill="black"/>
<path d="M120.287 82.5603L127.651 78.13C129.59 81.4195 132.109 83.8359 136.567 83.8359C140.314 83.8359 142.704 81.889 142.704 79.204C142.704 75.9819 140.249 74.8406 136.114 72.9617L133.854 71.9541C127.328 69.0682 123 65.4435 123 57.7909C123 50.7427 128.168 45.3724 136.244 45.3724C141.994 45.3724 146.128 47.4535 149.1 52.8908L142.058 57.5894C140.507 54.7032 138.828 53.5622 136.244 53.5622C133.595 53.5622 131.915 55.3075 131.915 57.5894C131.915 60.4087 133.595 61.5502 137.471 63.2955L139.732 64.3024C147.42 67.726 151.748 71.2162 151.748 79.0697C151.748 87.5281 145.353 92.1593 136.761 92.1593C128.362 92.1593 122.935 87.9978 120.287 82.5603" fill="black"/>
<path d="M35.958 152.144C35.014 152.144 34.126 151.936 33.294 151.52C32.478 151.104 31.822 150.512 31.326 149.744L32.358 148.544C32.822 149.216 33.358 149.728 33.966 150.08C34.574 150.432 35.246 150.608 35.982 150.608C38.062 150.608 39.102 149.376 39.102 146.912V136.736H32.958V135.2H40.854V146.84C40.854 148.616 40.438 149.944 39.606 150.824C38.79 151.704 37.574 152.144 35.958 152.144ZM46.3909 152L54.0709 135.2H55.8229L63.5029 152H61.6309L54.5749 136.232H55.2949L48.2389 152H46.3909ZM49.4149 147.512L49.9429 146.072H59.7109L60.239 147.512H49.4149ZM73.44 152L66 135.2H67.92L74.88 151.016H73.824L80.832 135.2H82.632L75.192 152H73.44ZM85.1157 152L92.7957 135.2H94.5477L102.228 152H100.356L93.2997 136.232H94.0197L86.9637 152H85.1157ZM88.1397 147.512L88.6677 146.072H98.4357L98.9637 147.512H88.1397ZM112.888 152.144C111.64 152.144 110.44 151.944 109.288 151.544C108.152 151.128 107.272 150.6 106.648 149.96L107.344 148.592C107.936 149.168 108.728 149.656 109.72 150.056C110.728 150.44 111.784 150.632 112.888 150.632C113.944 150.632 114.8 150.504 115.456 150.248C116.128 149.976 116.616 149.616 116.92 149.168C117.24 148.72 117.4 148.224 117.4 147.68C117.4 147.024 117.208 146.496 116.824 146.096C116.456 145.696 115.968 145.384 115.36 145.16C114.752 144.92 114.08 144.712 113.344 144.536C112.608 144.36 111.872 144.176 111.136 143.984C110.4 143.776 109.72 143.504 109.096 143.168C108.488 142.832 107.992 142.392 107.608 141.848C107.24 141.288 107.056 140.56 107.056 139.664C107.056 138.832 107.272 138.072 107.704 137.384C108.152 136.68 108.832 136.12 109.744 135.704C110.656 135.272 111.824 135.056 113.248 135.056C114.192 135.056 115.128 135.192 116.056 135.464C116.984 135.72 117.784 136.08 118.456 136.544L117.856 137.96C117.136 137.48 116.368 137.128 115.552 136.904C114.752 136.68 113.976 136.568 113.224 136.568C112.216 136.568 111.384 136.704 110.728 136.976C110.072 137.248 109.584 137.616 109.264 138.08C108.96 138.528 108.808 139.04 108.808 139.616C108.808 140.272 108.992 140.8 109.36 141.2C109.744 141.6 110.24 141.912 110.848 142.136C111.472 142.36 112.152 142.56 112.888 142.736C113.624 142.912 114.352 143.104 115.072 143.312C115.808 143.52 116.48 143.792 117.088 144.128C117.712 144.448 118.208 144.88 118.576 145.424C118.96 145.968 119.152 146.68 119.152 147.56C119.152 148.376 118.928 149.136 118.48 149.84C118.032 150.528 117.344 151.088 116.416 151.52C115.504 151.936 114.328 152.144 112.888 152.144ZM133.567 152.144C132.303 152.144 131.135 151.936 130.063 151.52C128.991 151.088 128.063 150.488 127.279 149.72C126.495 148.952 125.879 148.048 125.431 147.008C124.999 145.968 124.783 144.832 124.783 143.6C124.783 142.368 124.999 141.232 125.431 140.192C125.879 139.152 126.495 138.248 127.279 137.48C128.079 136.712 129.015 136.12 130.087 135.704C131.159 135.272 132.327 135.056 133.591 135.056C134.807 135.056 135.951 135.264 137.023 135.68C138.095 136.08 138.999 136.688 139.735 137.504L138.607 138.632C137.919 137.928 137.159 137.424 136.327 137.12C135.495 136.8 134.599 136.64 133.639 136.64C132.631 136.64 131.695 136.816 130.831 137.168C129.967 137.504 129.215 137.992 128.575 138.632C127.935 139.256 127.431 139.992 127.063 140.84C126.711 141.672 126.535 142.592 126.535 143.6C126.535 144.608 126.711 145.536 127.063 146.384C127.431 147.216 127.935 147.952 128.575 148.592C129.215 149.216 129.967 149.704 130.831 150.056C131.695 150.392 132.631 150.56 133.639 150.56C134.599 150.56 135.495 150.4 136.327 150.08C137.159 149.76 137.919 149.248 138.607 148.544L139.735 149.672C138.999 150.488 138.095 151.104 137.023 151.52C135.951 151.936 134.799 152.144 133.567 152.144ZM146.77 152V135.2H153.058C154.482 135.2 155.706 135.432 156.73 135.896C157.754 136.344 158.538 137 159.082 137.864C159.642 138.712 159.922 139.744 159.922 140.96C159.922 142.144 159.642 143.168 159.082 144.032C158.538 144.88 157.754 145.536 156.73 146C155.706 146.448 154.482 146.672 153.058 146.672H147.754L148.546 145.856V152H146.77ZM158.242 152L153.922 145.904H155.842L160.186 152H158.242ZM148.546 146L147.754 145.16H153.01C154.69 145.16 155.962 144.792 156.826 144.056C157.706 143.32 158.146 142.288 158.146 140.96C158.146 139.616 157.706 138.576 156.826 137.84C155.962 137.104 154.69 136.736 153.01 136.736H147.754L148.546 135.896V146ZM167.363 152V135.2H169.139V152H167.363ZM177.854 152V135.2H184.142C185.566 135.2 186.79 135.432 187.814 135.896C188.838 136.344 189.622 137 190.166 137.864C190.726 138.712 191.006 139.744 191.006 140.96C191.006 142.144 190.726 143.168 190.166 144.032C189.622 144.88 188.838 145.536 187.814 146C186.79 146.464 185.566 146.696 184.142 146.696H178.838L179.63 145.856V152H177.854ZM179.63 146L178.838 145.136H184.094C185.774 145.136 187.046 144.776 187.91 144.056C188.79 143.32 189.23 142.288 189.23 140.96C189.23 139.616 188.79 138.576 187.91 137.84C187.046 137.104 185.774 136.736 184.094 136.736H178.838L179.63 135.896V146ZM200.797 152V136.736H194.893V135.2H208.477V136.736H202.573V152H200.797Z" fill="black"/>
</svg>
