<svg width="240" height="188" viewBox="0 0 240 188" fill="none" xmlns="http://www.w3.org/2000/svg">
<path d="M75.644 171V154.2H81.932C83.356 154.2 84.58 154.432 85.604 154.896C86.628 155.344 87.412 156 87.956 156.864C88.516 157.712 88.796 158.744 88.796 159.96C88.796 161.144 88.516 162.168 87.956 163.032C87.412 163.88 86.628 164.536 85.604 165C84.58 165.448 83.356 165.672 81.932 165.672H76.628L77.42 164.856V171H75.644ZM87.116 171L82.796 164.904H84.716L89.06 171H87.116ZM77.42 165L76.628 164.16H81.884C83.564 164.16 84.836 163.792 85.7 163.056C86.58 162.32 87.02 161.288 87.02 159.96C87.02 158.616 86.58 157.576 85.7 156.84C84.836 156.104 83.564 155.736 81.884 155.736H76.628L77.42 154.896V165ZM97.8209 161.712H106.701V163.224H97.8209V161.712ZM98.0129 169.464H108.117V171H96.2369V154.2H107.757V155.736H98.0129V169.464ZM112.853 171L120.533 154.2H122.285L129.965 171H128.093L121.037 155.232H121.757L114.701 171H112.853ZM115.877 166.512L116.405 165.072H126.173L126.701 166.512H115.877ZM143.055 171.144C141.791 171.144 140.623 170.936 139.551 170.52C138.479 170.088 137.551 169.488 136.767 168.72C135.983 167.952 135.367 167.048 134.919 166.008C134.487 164.968 134.271 163.832 134.271 162.6C134.271 161.368 134.487 160.232 134.919 159.192C135.367 158.152 135.983 157.248 136.767 156.48C137.567 155.712 138.503 155.12 139.575 154.704C140.647 154.272 141.815 154.056 143.079 154.056C144.295 154.056 145.439 154.264 146.511 154.68C147.583 155.08 148.487 155.688 149.223 156.504L148.095 157.632C147.407 156.928 146.647 156.424 145.815 156.12C144.983 155.8 144.087 155.64 143.127 155.64C142.119 155.64 141.183 155.816 140.319 156.168C139.455 156.504 138.703 156.992 138.063 157.632C137.423 158.256 136.919 158.992 136.551 159.84C136.199 160.672 136.023 161.592 136.023 162.6C136.023 163.608 136.199 164.536 136.551 165.384C136.919 166.216 137.423 166.952 138.063 167.592C138.703 168.216 139.455 168.704 140.319 169.056C141.183 169.392 142.119 169.56 143.127 169.56C144.087 169.56 144.983 169.4 145.815 169.08C146.647 168.76 147.407 168.248 148.095 167.544L149.223 168.672C148.487 169.488 147.583 170.104 146.511 170.52C145.439 170.936 144.287 171.144 143.055 171.144ZM159.311 171V155.736H153.407V154.2H166.991V155.736H161.087V171H159.311Z" fill="black"/>
<path d="M67 49.5504C67 57.9044 74.8018 65.7033 87.1019 70.0992C84.6457 83.0286 86.6617 93.4496 93.3955 97.5103C100.317 101.684 110.629 98.7949 120.416 89.8497C129.956 98.4337 139.598 101.812 146.325 97.7398C153.24 93.5542 155.343 82.4263 152.819 69.0933C165.63 64.6644 172.797 58.0144 172.797 49.5504C172.797 41.39 164.98 34.3302 152.846 29.9624C155.563 16.0784 153.261 5.91019 146.248 1.68185C139.488 -2.39453 129.734 1.15845 120.053 9.96729C109.983 0.617401 100.325 -2.23724 93.3193 2.00343C86.5651 6.09141 84.6378 16.7018 87.1019 29.8706C75.2171 34.2034 67 41.4226 67 49.5504Z" fill="white"/>
<path d="M150.275 34.2996C149.3 33.9488 148.29 33.6169 147.25 33.303C147.421 32.5737 147.578 31.8537 147.718 31.146C150.007 19.5254 148.51 10.1638 143.398 7.08156C138.497 4.12609 130.481 7.20764 122.385 14.5745C121.606 15.2829 120.826 16.0329 120.045 16.819C119.525 16.2989 119.006 15.7963 118.488 15.3156C110.004 7.43846 101.499 4.11892 96.3925 7.21009C91.4956 10.1741 90.0455 18.9749 92.1064 29.9879C92.3054 31.0516 92.5381 32.1379 92.8011 33.2424C91.5975 33.5996 90.4355 33.9805 89.3237 34.3857C79.3763 38.0119 73.0234 43.6952 73.0234 49.5902C73.0234 55.6786 79.8432 61.7854 90.2042 65.4883C91.0218 65.7805 91.8703 66.0568 92.7446 66.3191C92.4608 67.5136 92.2139 68.6842 92.0067 69.8259C90.0416 80.6477 91.5762 89.2406 96.46 92.1859C101.505 95.2276 109.971 92.1011 118.215 84.5663C118.866 83.9707 119.52 83.3391 120.175 82.677C121.024 83.532 121.872 84.3411 122.715 85.1C130.7 92.2849 138.587 95.1862 143.466 92.2326C148.506 89.1822 150.144 79.9514 148.017 68.7206C147.855 67.8628 147.666 66.9865 147.454 66.0947C148.048 65.9109 148.632 65.7212 149.201 65.5239C159.972 61.7924 166.98 55.7599 166.98 49.5902C166.98 43.6738 160.423 37.9523 150.275 34.2996Z" fill="#53C1DE"/>
<path d="M147.939 61.5405C147.425 61.7183 146.898 61.8902 146.361 62.0569C145.171 58.1207 143.567 53.9352 141.603 49.6109C143.477 45.3895 145.02 41.2575 146.175 37.3469C147.137 37.6378 148.069 37.9445 148.968 38.2682C157.663 41.3978 162.966 46.025 162.966 49.5904C162.966 53.3882 157.239 58.3183 147.939 61.5405ZM144.08 69.5358C145.02 74.502 145.154 78.9919 144.531 82.5019C143.972 85.6558 142.846 87.7586 141.455 88.6008C138.494 90.3929 132.162 88.0634 125.333 81.9189C124.55 81.2145 123.761 80.4624 122.97 79.6664C125.618 76.6389 128.264 73.1193 130.846 69.2104C135.388 68.789 139.68 68.1 143.571 67.1594C143.763 67.9678 143.933 68.7607 144.08 69.5358ZM105.055 88.2911C102.163 89.3594 99.8584 89.39 98.4656 88.5503C95.502 86.7629 94.2699 79.8636 95.9505 70.6088C96.143 69.549 96.3721 68.4602 96.6362 67.3474C100.485 68.2373 104.745 68.8776 109.298 69.2636C111.898 73.0885 114.62 76.6042 117.363 79.6826C116.764 80.2877 116.167 80.8637 115.573 81.4065C111.928 84.7383 108.275 87.1022 105.055 88.2911ZM91.5024 61.5172C86.9209 59.8799 83.1374 57.7519 80.544 55.4298C78.2137 53.3431 77.0371 51.2714 77.0371 49.5904C77.0371 46.0131 82.1378 41.4503 90.6449 38.3489C91.6771 37.9726 92.7577 37.618 93.879 37.2849C95.0547 41.2838 96.597 45.4647 98.4583 49.6925C96.573 53.9831 95.0088 58.2307 93.8215 62.2765C93.0221 62.0362 92.2476 61.7834 91.5024 61.5172ZM96.0455 29.1821C94.2797 19.7465 95.4524 12.6286 98.4034 10.8425C101.547 8.93977 108.497 11.6527 115.823 18.4542C116.292 18.889 116.762 19.344 117.233 19.8147C114.503 22.8797 111.806 26.369 109.229 30.1714C104.81 30.5996 100.58 31.2875 96.6914 32.2088C96.4469 31.1804 96.2303 30.17 96.0455 29.1821ZM136.574 39.6461C135.645 37.967 134.69 36.3276 133.717 34.733C136.715 35.1293 139.587 35.6553 142.284 36.299C141.475 39.0126 140.465 41.8498 139.277 44.7584C138.425 43.0666 137.523 41.3607 136.574 39.6461ZM120.047 22.8141C121.898 24.9113 123.752 27.2528 125.576 29.7933C123.738 29.7025 121.878 29.6553 120.002 29.6553C118.144 29.6553 116.297 29.7015 114.471 29.7907C116.296 27.2738 118.166 24.9354 120.047 22.8141ZM103.413 39.6752C102.485 41.359 101.6 43.0556 100.761 44.7553C99.5922 41.8568 98.5922 39.0066 97.7754 36.2545C100.456 35.6273 103.315 35.1144 106.294 34.7257C105.307 36.335 104.345 37.9864 103.413 39.6748V39.6752ZM106.379 64.7546C103.302 64.3956 100.4 63.9091 97.7201 63.2991C98.5499 60.4979 99.5719 57.5868 100.766 54.626C101.607 56.3245 102.495 58.0218 103.429 59.7092H103.429C104.381 61.4284 105.367 63.1124 106.379 64.7546ZM120.158 76.6627C118.255 74.5165 116.358 72.1425 114.505 69.5888C116.304 69.6626 118.138 69.7004 120.002 69.7004C121.917 69.7004 123.81 69.6553 125.674 69.5685C123.844 72.1682 121.997 74.5459 120.158 76.6627ZM139.315 54.4751C140.571 57.4679 141.63 60.3638 142.47 63.1173C139.746 63.7671 136.805 64.2905 133.706 64.6794C134.681 63.0632 135.644 61.3957 136.59 59.6804C137.547 57.945 138.456 56.207 139.315 54.4751ZM133.113 57.5837C131.645 60.2464 130.137 62.7883 128.606 65.1877C125.818 65.3962 122.938 65.5035 120.002 65.5035C117.078 65.5035 114.234 65.4086 111.495 65.2227C109.903 62.7918 108.362 60.2424 106.903 57.6066H106.903C105.447 54.978 104.108 52.3271 102.894 49.6912C104.108 47.049 105.444 44.3952 106.891 41.7713L106.89 41.7718C108.341 39.1409 109.869 36.6039 111.446 34.1883C114.241 33.9674 117.106 33.8522 120.002 33.8522H120.002C122.911 33.8522 125.78 33.9683 128.573 34.1911C130.127 36.5891 131.644 39.1178 133.1 41.7491C134.574 44.4099 135.927 47.0461 137.151 49.6315C135.931 52.2614 134.58 54.9241 133.113 57.5837ZM141.393 10.7177C144.54 12.6148 145.763 20.2661 143.787 30.2992C143.66 30.9394 143.518 31.5915 143.364 32.2523C139.466 31.3119 135.233 30.612 130.802 30.1773C128.22 26.3331 125.544 22.8384 122.859 19.8128C123.581 19.0866 124.302 18.3941 125.02 17.7406C131.956 11.4287 138.44 8.93662 141.393 10.7177Z" fill="white"/>
<path d="M120.003 40.8179C124.637 40.8179 128.393 44.7454 128.393 49.5905C128.393 54.4355 124.637 58.3632 120.003 58.3632C115.37 58.3632 111.613 54.4355 111.613 49.5905C111.613 44.7454 115.37 40.8179 120.003 40.8179Z" fill="#53C1DE"/>
</svg>
