<svg width="166" height="169" viewBox="0 0 166 169" fill="none" xmlns="http://www.w3.org/2000/svg">
<path d="M128.974 57.4487C124.547 57.475 120.713 58.5946 117.498 60.2615C116.311 57.7875 115.123 55.6258 114.926 54.0115C114.703 52.1365 114.431 50.9904 114.703 48.7511C114.975 46.5112 116.212 43.3341 116.212 43.0737C116.187 42.8393 115.939 41.6935 113.392 41.6675C110.845 41.6414 108.643 42.1883 108.396 42.8914C108.149 43.5946 107.654 45.2091 107.332 46.8758C106.887 49.3237 102.237 57.9956 99.5908 62.5529C98.7252 60.782 97.9832 59.2196 97.8345 57.9693C97.6122 56.0946 97.3399 54.9485 97.6122 52.7091C97.8842 50.4693 99.1209 47.2925 99.1209 47.0321C99.0962 46.7977 98.8488 45.6518 96.3016 45.6258C93.7538 45.5998 91.5528 46.1466 91.3055 46.8498C91.0581 47.5529 90.7861 49.2196 90.2419 50.8341C89.7223 52.4487 83.539 66.9279 81.9313 70.7039C81.1151 72.631 80.3981 74.1675 79.8785 75.2091C79.3591 76.2508 79.8537 75.2873 79.8043 75.3914C79.3591 76.2768 79.1117 76.7716 79.1117 76.7716V76.7979C78.7655 77.449 78.3945 78.0737 78.2211 78.0737C78.0974 78.0737 77.8501 76.3289 78.2705 73.9333C79.1857 68.9071 81.4117 61.0688 81.3872 60.7823C81.3872 60.6521 81.8074 59.2716 79.9524 58.5688C78.1469 57.8656 77.5041 59.0375 77.3554 59.0375C77.207 59.0375 77.0834 59.4542 77.0834 59.4542C77.0834 59.4542 79.0867 50.6263 73.2497 50.6263C69.5892 50.6263 64.5436 54.819 62.0456 58.6472C60.4626 59.5586 57.0989 61.4854 53.5373 63.543C52.177 64.3242 50.7672 65.1576 49.4316 65.9128L49.1598 65.5998C42.0861 57.6571 29.0022 52.0321 29.5463 41.355C29.7442 37.4748 31.0303 27.2404 54.6755 14.8446C74.0417 4.68832 89.5494 7.47477 92.2451 13.6727C96.0787 22.5269 83.9594 38.9852 63.8268 41.355C56.1595 42.2664 52.1278 39.1414 51.114 37.9696C50.0504 36.7456 49.902 36.6935 49.5063 36.9279C48.8632 37.2925 49.259 38.3862 49.5063 39.0373C50.0999 40.6779 52.5732 43.5946 56.7779 45.0529C60.4629 46.3289 69.466 47.0321 80.3486 42.605C92.5421 37.631 102.064 23.8289 99.2696 12.2925C96.4252 0.547694 77.9248 -3.30647 60.4384 3.22998C50.0255 7.13623 38.7471 13.23 30.6346 21.2248C20.9886 30.7039 19.4552 38.9852 20.0982 42.4227C22.3492 54.6883 38.4008 62.6831 44.8315 68.5946C44.5099 68.7766 44.2131 68.9589 43.9411 69.1154C40.7258 70.7818 28.4828 77.5268 25.4159 84.662C21.9532 92.7349 25.96 98.5425 28.6312 99.3237C36.8921 101.746 45.3509 97.3966 49.9265 90.2352C54.4772 83.0737 53.9333 73.7768 51.831 69.5321L51.7565 69.3758L54.2793 67.8133C55.912 66.7977 57.5196 65.8602 58.9292 65.0526C58.138 67.3182 57.5688 70.0005 57.2723 73.9068C56.926 78.4904 58.7068 84.4276 61.0565 86.7714C62.0953 87.7867 63.3319 87.813 64.0987 87.813C66.8193 87.813 68.056 85.443 69.4163 82.6047C71.0982 79.1412 72.5822 75.1307 72.5822 75.1307C72.5822 75.1307 70.7272 85.9901 75.7975 85.9901C77.6525 85.9901 79.5075 83.4641 80.3484 82.162V82.188C80.3484 82.188 80.3979 82.1099 80.4968 81.9276C80.6006 81.7661 80.6995 81.6011 80.7936 81.4331V81.381C81.5356 80.0268 83.1927 76.9279 85.666 71.7977C88.8564 65.1831 91.9235 56.9018 91.9235 56.9018C91.9235 56.9018 92.2203 58.9331 93.1355 62.2664C93.6794 64.2458 94.8665 66.4071 95.7817 68.5164C95.0397 69.6102 94.5945 70.2354 94.5945 70.2354L94.6192 70.2615C94.0259 71.0948 93.3578 71.9805 92.6655 72.8656C90.1427 76.0427 87.1253 79.6628 86.7296 80.7044C86.2596 81.9281 86.3586 82.8396 87.2737 83.569C87.9415 84.0899 89.1287 84.1938 90.3901 84.0899C92.6655 83.9333 94.2485 83.3347 95.0399 82.9698C96.2766 82.5011 97.6864 81.7979 99.0467 80.7563C101.52 78.8294 103.029 76.0951 102.88 72.4492C102.806 70.444 102.188 68.4649 101.421 66.5899C101.644 66.2513 101.867 65.9125 102.089 65.5482C105.997 59.5323 109.014 52.918 109.014 52.918C109.014 52.918 109.311 54.9492 110.226 58.2826C110.696 59.9753 111.636 61.8245 112.477 63.6474C108.816 66.7985 106.516 70.4443 105.725 72.8401C104.265 77.2672 105.403 79.2724 107.555 79.7412C108.519 79.9495 109.905 79.4808 110.943 79.012C112.229 78.5693 113.787 77.8138 115.222 76.6943C117.696 74.7672 120.07 72.0849 119.946 68.4651C119.872 66.7985 119.452 65.1578 118.883 63.5953C121.999 62.2412 126.03 61.4599 131.15 62.111C142.157 63.4651 144.333 70.7047 143.913 73.7255C143.493 76.7466 141.192 78.413 140.425 78.9339C139.659 79.4287 139.411 79.6112 139.486 79.9755C139.584 80.5227 139.931 80.4964 140.599 80.3925C141.514 80.236 146.386 77.9185 146.584 72.3458C146.881 65.1833 140.425 57.3709 128.974 57.4487ZM44.0895 87.5789C40.4537 91.7716 35.3339 93.3602 33.1574 92.006C30.8077 90.5737 31.7226 84.4018 36.1996 79.9487C38.9202 77.2404 42.4571 74.7404 44.782 73.2039C45.3014 72.8654 46.0929 72.3709 47.0327 71.7716C47.1811 71.6677 47.2801 71.6154 47.2801 71.6154C47.4532 71.5112 47.6511 71.381 47.8489 71.2508C49.5061 77.605 47.9231 83.1779 44.0895 87.5789ZM70.6777 68.5425C69.4163 71.7977 66.7451 80.1571 65.1375 79.6883C63.7521 79.2977 62.9115 72.9696 64.8651 66.7196C65.8545 63.5682 67.9568 59.8185 69.1935 58.3599C71.1971 56.0162 73.3734 55.2349 73.9177 56.1985C74.5608 57.4487 71.4692 66.5112 70.6777 68.5425ZM92.6161 79.5841C92.0719 79.8708 91.5773 80.0789 91.3547 79.9229C91.1815 79.8188 91.577 79.4281 91.577 79.4281C91.577 79.4281 94.3224 76.3292 95.4107 74.8969C96.029 74.0638 96.771 73.1003 97.5625 72.0063V72.3188C97.5627 76.0685 94.1495 78.5685 92.6161 79.5841ZM109.533 75.5216C109.138 75.2091 109.187 74.2456 110.523 71.2248C111.042 70.0268 112.229 68.0216 114.282 66.1206C114.529 66.9018 114.678 67.6568 114.653 68.3602C114.629 73.0477 111.463 74.7925 109.533 75.5216Z" fill="#CF649A"/>
<path d="M54.7443 152.144C53.4963 152.144 52.2963 151.944 51.1443 151.544C50.0083 151.128 49.1283 150.6 48.5043 149.96L49.2003 148.592C49.7923 149.168 50.5843 149.656 51.5763 150.056C52.5843 150.44 53.6403 150.632 54.7443 150.632C55.8003 150.632 56.6563 150.504 57.3123 150.248C57.9843 149.976 58.4723 149.616 58.7763 149.168C59.0963 148.72 59.2563 148.224 59.2563 147.68C59.2563 147.024 59.0643 146.496 58.6803 146.096C58.3123 145.696 57.8243 145.384 57.2163 145.16C56.6083 144.92 55.9363 144.712 55.2003 144.536C54.4643 144.36 53.7283 144.176 52.9923 143.984C52.2563 143.776 51.5763 143.504 50.9523 143.168C50.3443 142.832 49.8483 142.392 49.4643 141.848C49.0963 141.288 48.9123 140.56 48.9123 139.664C48.9123 138.832 49.1283 138.072 49.5603 137.384C50.0083 136.68 50.6883 136.12 51.6003 135.704C52.5123 135.272 53.6803 135.056 55.1043 135.056C56.0483 135.056 56.9843 135.192 57.9123 135.464C58.8403 135.72 59.6403 136.08 60.3123 136.544L59.7123 137.96C58.9923 137.48 58.2243 137.128 57.4083 136.904C56.6083 136.68 55.8323 136.568 55.0803 136.568C54.0723 136.568 53.2403 136.704 52.5843 136.976C51.9283 137.248 51.4403 137.616 51.1203 138.08C50.8163 138.528 50.6643 139.04 50.6643 139.616C50.6643 140.272 50.8483 140.8 51.2163 141.2C51.6003 141.6 52.0963 141.912 52.7043 142.136C53.3283 142.36 54.0083 142.56 54.7443 142.736C55.4803 142.912 56.2083 143.104 56.9283 143.312C57.6643 143.52 58.3363 143.792 58.9443 144.128C59.5683 144.448 60.0643 144.88 60.4323 145.424C60.8163 145.968 61.0083 146.68 61.0083 147.56C61.0083 148.376 60.7843 149.136 60.3363 149.84C59.8883 150.528 59.2003 151.088 58.2723 151.52C57.3603 151.936 56.1843 152.144 54.7443 152.144ZM65.4391 152L73.1191 135.2H74.8711L82.5511 152H80.6791L73.6231 136.232H74.3431L67.2871 152H65.4391ZM68.4631 147.512L68.9911 146.072H78.7591L79.2871 147.512H68.4631ZM93.2113 152.144C91.9633 152.144 90.7633 151.944 89.6113 151.544C88.4753 151.128 87.5953 150.6 86.9713 149.96L87.6673 148.592C88.2593 149.168 89.0513 149.656 90.0433 150.056C91.0513 150.44 92.1073 150.632 93.2113 150.632C94.2673 150.632 95.1233 150.504 95.7793 150.248C96.4513 149.976 96.9393 149.616 97.2433 149.168C97.5633 148.72 97.7233 148.224 97.7233 147.68C97.7233 147.024 97.5313 146.496 97.1473 146.096C96.7793 145.696 96.2913 145.384 95.6833 145.16C95.0753 144.92 94.4033 144.712 93.6673 144.536C92.9313 144.36 92.1953 144.176 91.4593 143.984C90.7233 143.776 90.0433 143.504 89.4193 143.168C88.8113 142.832 88.3153 142.392 87.9313 141.848C87.5633 141.288 87.3793 140.56 87.3793 139.664C87.3793 138.832 87.5953 138.072 88.0273 137.384C88.4753 136.68 89.1553 136.12 90.0673 135.704C90.9793 135.272 92.1473 135.056 93.5713 135.056C94.5153 135.056 95.4513 135.192 96.3793 135.464C97.3073 135.72 98.1073 136.08 98.7793 136.544L98.1793 137.96C97.4593 137.48 96.6913 137.128 95.8753 136.904C95.0753 136.68 94.2993 136.568 93.5473 136.568C92.5393 136.568 91.7073 136.704 91.0513 136.976C90.3953 137.248 89.9073 137.616 89.5873 138.08C89.2833 138.528 89.1313 139.04 89.1313 139.616C89.1313 140.272 89.3153 140.8 89.6833 141.2C90.0673 141.6 90.5633 141.912 91.1713 142.136C91.7953 142.36 92.4753 142.56 93.2113 142.736C93.9473 142.912 94.6753 143.104 95.3953 143.312C96.1313 143.52 96.8033 143.792 97.4113 144.128C98.0353 144.448 98.5313 144.88 98.8993 145.424C99.2833 145.968 99.4753 146.68 99.4753 147.56C99.4753 148.376 99.2513 149.136 98.8033 149.84C98.3553 150.528 97.6673 151.088 96.7393 151.52C95.8273 151.936 94.6513 152.144 93.2113 152.144ZM111.226 152.144C109.978 152.144 108.778 151.944 107.626 151.544C106.49 151.128 105.61 150.6 104.986 149.96L105.682 148.592C106.274 149.168 107.066 149.656 108.058 150.056C109.066 150.44 110.122 150.632 111.226 150.632C112.282 150.632 113.138 150.504 113.794 150.248C114.466 149.976 114.954 149.616 115.258 149.168C115.578 148.72 115.738 148.224 115.738 147.68C115.738 147.024 115.546 146.496 115.162 146.096C114.794 145.696 114.306 145.384 113.698 145.16C113.09 144.92 112.418 144.712 111.682 144.536C110.946 144.36 110.21 144.176 109.474 143.984C108.738 143.776 108.058 143.504 107.434 143.168C106.826 142.832 106.33 142.392 105.946 141.848C105.578 141.288 105.394 140.56 105.394 139.664C105.394 138.832 105.61 138.072 106.042 137.384C106.49 136.68 107.17 136.12 108.082 135.704C108.994 135.272 110.162 135.056 111.586 135.056C112.53 135.056 113.466 135.192 114.394 135.464C115.322 135.72 116.122 136.08 116.794 136.544L116.194 137.96C115.474 137.48 114.706 137.128 113.89 136.904C113.09 136.68 112.314 136.568 111.562 136.568C110.554 136.568 109.722 136.704 109.066 136.976C108.41 137.248 107.922 137.616 107.602 138.08C107.298 138.528 107.146 139.04 107.146 139.616C107.146 140.272 107.33 140.8 107.698 141.2C108.082 141.6 108.578 141.912 109.186 142.136C109.81 142.36 110.49 142.56 111.226 142.736C111.962 142.912 112.69 143.104 113.41 143.312C114.146 143.52 114.818 143.792 115.426 144.128C116.05 144.448 116.546 144.88 116.914 145.424C117.298 145.968 117.49 146.68 117.49 147.56C117.49 148.376 117.266 149.136 116.818 149.84C116.37 150.528 115.682 151.088 114.754 151.52C113.842 151.936 112.666 152.144 111.226 152.144Z" fill="black"/>
</svg>
