<svg width="240" height="187" viewBox="0 0 240 187" fill="none" xmlns="http://www.w3.org/2000/svg">
<g clip-path="url(#clip0_374_20)">
<path d="M98.3753 100C107.963 100 115.745 92.5335 115.745 83.3335V66.6668H98.3753C88.7874 66.6668 81.0059 74.1335 81.0059 83.3335C81.0059 92.5335 88.7874 100 98.3753 100Z" fill="#0ACF83"/>
<path d="M81.0059 49.9999C81.0059 40.7999 88.7874 33.3332 98.3753 33.3332H115.745V66.6665H98.3753C88.7874 66.6665 81.0059 59.1999 81.0059 49.9999Z" fill="#A259FF"/>
<path d="M81.0039 16.6667C81.0039 7.46667 88.7854 7.62939e-06 98.3733 7.62939e-06H115.743V33.3333H98.3733C88.7854 33.3333 81.0039 25.8667 81.0039 16.6667Z" fill="#F24E1E"/>
<path d="M115.746 7.62939e-06H133.115C142.703 7.62939e-06 150.485 7.46667 150.485 16.6667C150.485 25.8667 142.703 33.3333 133.115 33.3333H115.746V7.62939e-06Z" fill="#FF7262"/>
<path d="M150.485 49.9999C150.485 59.1999 142.703 66.6665 133.115 66.6665C123.527 66.6665 115.746 59.1999 115.746 49.9999C115.746 40.7999 123.527 33.3332 133.115 33.3332C142.703 33.3332 150.485 40.7999 150.485 49.9999Z" fill="#1ABCFE"/>
</g>
<path d="M77.2632 161.336H86.1432V162.872H77.2632V161.336ZM77.4552 170H75.6792V153.2H87.1992V154.736H77.4552V170ZM94.1158 170V153.2H95.8918V170H94.1158ZM111.975 170.144C110.695 170.144 109.511 169.936 108.423 169.52C107.351 169.088 106.415 168.488 105.615 167.72C104.831 166.952 104.215 166.048 103.767 165.008C103.335 163.968 103.119 162.832 103.119 161.6C103.119 160.368 103.335 159.232 103.767 158.192C104.215 157.152 104.839 156.248 105.639 155.48C106.439 154.712 107.375 154.12 108.447 153.704C109.535 153.272 110.719 153.056 111.999 153.056C113.279 153.056 114.447 153.256 115.503 153.656C116.575 154.056 117.487 154.664 118.239 155.48L117.135 156.608C116.431 155.904 115.655 155.4 114.807 155.096C113.959 154.792 113.047 154.64 112.071 154.64C111.031 154.64 110.071 154.816 109.191 155.168C108.327 155.504 107.567 155.992 106.911 156.632C106.271 157.256 105.767 157.992 105.399 158.84C105.047 159.672 104.871 160.592 104.871 161.6C104.871 162.592 105.047 163.512 105.399 164.36C105.767 165.208 106.271 165.952 106.911 166.592C107.567 167.216 108.327 167.704 109.191 168.056C110.071 168.392 111.023 168.56 112.047 168.56C113.007 168.56 113.911 168.416 114.759 168.128C115.623 167.84 116.415 167.352 117.135 166.664L118.143 168.008C117.343 168.712 116.407 169.248 115.335 169.616C114.263 169.968 113.143 170.144 111.975 170.144ZM116.439 167.792V161.6H118.143V168.008L116.439 167.792ZM126.419 170V153.2H127.883L135.563 166.304H134.795L142.403 153.2H143.867V170H142.163V155.864H142.571L135.563 167.864H134.723L127.667 155.864H128.123V170H126.419ZM149.902 170L157.582 153.2H159.334L167.014 170H165.142L158.086 154.232H158.806L151.75 170H149.902ZM152.926 165.512L153.454 164.072H163.222L163.75 165.512H152.926Z" fill="black"/>
<defs>
<clipPath id="clip0_374_20">
<rect width="69.4915" height="100" fill="white" transform="translate(81)"/>
</clipPath>
</defs>
</svg>
