<svg width="240" height="172" viewBox="0 0 240 172" fill="none" xmlns="http://www.w3.org/2000/svg">
<g filter="url(#filter0_d_376_22)">
<path d="M37.1759 139.736H31.2719V138.2H44.8559V139.736H38.9519V155H37.1759V139.736ZM56.585 149.192V155H54.833V149.192L48.113 138.2H50.009L55.769 147.632L61.529 138.2H63.305L56.585 149.192ZM75.245 138.2C77.389 138.2 79.069 138.712 80.285 139.736C81.501 140.76 82.109 142.168 82.109 143.96C82.109 145.752 81.501 147.16 80.285 148.184C79.069 149.192 77.389 149.696 75.245 149.696H70.733V155H68.957V138.2H75.245ZM75.197 148.136C76.861 148.136 78.133 147.776 79.013 147.056C79.893 146.32 80.333 145.288 80.333 143.96C80.333 142.6 79.893 141.56 79.013 140.84C78.133 140.104 76.861 139.736 75.197 139.736H70.733V148.136H75.197ZM101.078 153.464V155H89.1983V138.2H100.718V139.736H90.9743V145.712H99.6623V147.224H90.9743V153.464H101.078ZM113.134 155.144C111.886 155.144 110.686 154.944 109.534 154.544C108.398 154.144 107.518 153.616 106.894 152.96L107.59 151.592C108.198 152.2 109.006 152.696 110.014 153.08C111.022 153.448 112.062 153.632 113.134 153.632C114.638 153.632 115.766 153.36 116.518 152.816C117.27 152.256 117.646 151.536 117.646 150.656C117.646 149.984 117.438 149.448 117.022 149.048C116.622 148.648 116.126 148.344 115.534 148.136C114.942 147.912 114.118 147.672 113.062 147.416C111.798 147.096 110.79 146.792 110.038 146.504C109.286 146.2 108.638 145.744 108.094 145.136C107.566 144.528 107.302 143.704 107.302 142.664C107.302 141.816 107.526 141.048 107.974 140.36C108.422 139.656 109.11 139.096 110.038 138.68C110.966 138.264 112.118 138.056 113.494 138.056C114.454 138.056 115.39 138.192 116.302 138.464C117.23 138.72 118.03 139.08 118.702 139.544L118.102 140.96C117.398 140.496 116.646 140.152 115.846 139.928C115.046 139.688 114.262 139.568 113.494 139.568C112.022 139.568 110.91 139.856 110.158 140.432C109.422 140.992 109.054 141.72 109.054 142.616C109.054 143.288 109.254 143.832 109.654 144.248C110.07 144.648 110.582 144.96 111.19 145.184C111.814 145.392 112.646 145.624 113.686 145.88C114.918 146.184 115.91 146.488 116.662 146.792C117.43 147.08 118.078 147.528 118.606 148.136C119.134 148.728 119.398 149.536 119.398 150.56C119.398 151.408 119.166 152.184 118.702 152.888C118.254 153.576 117.558 154.128 116.614 154.544C115.67 154.944 114.51 155.144 113.134 155.144ZM133.813 155.144C132.149 155.144 130.645 154.776 129.301 154.04C127.973 153.304 126.925 152.288 126.157 150.992C125.405 149.68 125.029 148.216 125.029 146.6C125.029 144.984 125.405 143.528 126.157 142.232C126.925 140.92 127.981 139.896 129.325 139.16C130.669 138.424 132.173 138.056 133.837 138.056C135.085 138.056 136.237 138.264 137.293 138.68C138.349 139.096 139.245 139.704 139.981 140.504L138.853 141.632C137.541 140.304 135.885 139.64 133.885 139.64C132.557 139.64 131.349 139.944 130.261 140.552C129.173 141.16 128.317 141.992 127.693 143.048C127.085 144.104 126.781 145.288 126.781 146.6C126.781 147.912 127.085 149.096 127.693 150.152C128.317 151.208 129.173 152.04 130.261 152.648C131.349 153.256 132.557 153.56 133.885 153.56C135.901 153.56 137.557 152.888 138.853 151.544L139.981 152.672C139.245 153.472 138.341 154.088 137.269 154.52C136.213 154.936 135.061 155.144 133.813 155.144ZM158.488 155L154.648 149.6C154.216 149.648 153.768 149.672 153.304 149.672H148.792V155H147.016V138.2H153.304C155.448 138.2 157.128 138.712 158.344 139.736C159.56 140.76 160.168 142.168 160.168 143.96C160.168 145.272 159.832 146.384 159.16 147.296C158.504 148.192 157.56 148.84 156.328 149.24L160.432 155H158.488ZM153.256 148.16C154.92 148.16 156.192 147.792 157.072 147.056C157.952 146.32 158.392 145.288 158.392 143.96C158.392 142.6 157.952 141.56 157.072 140.84C156.192 140.104 154.92 139.736 153.256 139.736H148.792V148.16H153.256ZM167.609 138.2H169.385V155H167.609V138.2ZM184.388 138.2C186.532 138.2 188.212 138.712 189.428 139.736C190.644 140.76 191.252 142.168 191.252 143.96C191.252 145.752 190.644 147.16 189.428 148.184C188.212 149.192 186.532 149.696 184.388 149.696H179.876V155H178.1V138.2H184.388ZM184.34 148.136C186.004 148.136 187.276 147.776 188.156 147.056C189.036 146.32 189.476 145.288 189.476 143.96C189.476 142.6 189.036 141.56 188.156 140.84C187.276 140.104 186.004 139.736 184.34 139.736H179.876V148.136H184.34ZM201.043 139.736H195.139V138.2H208.723V139.736H202.819V155H201.043V139.736Z" fill="black"/>
<path d="M67 50V100H117H167V50V0H117H67V50Z" fill="#007ACC"/>
<path d="M89.1132 50.3318L89.0815 54.427L95.5894 54.427H102.097V72.9191V91.4111H106.701H111.304V72.9191V54.427H117.812H124.32V50.4111C124.32 48.1889 124.272 46.3318 124.208 46.2841C124.161 46.2207 116.24 46.1889 106.637 46.2048L89.1609 46.2524L89.1132 50.3318Z" fill="white"/>
<path d="M147.691 46.1362C150.23 46.7711 152.167 47.8981 153.945 49.7393C154.865 50.7235 156.23 52.5171 156.341 52.9457C156.373 53.0727 152.024 55.9933 149.389 57.6282C149.294 57.6917 148.913 57.279 148.484 56.6441C147.198 54.7711 145.849 53.9616 143.786 53.8187C140.754 53.6124 138.802 55.1997 138.818 57.8505C138.818 58.6282 138.929 59.0886 139.246 59.7235C139.913 61.1044 141.151 61.9298 145.04 63.6124C152.198 66.6917 155.262 68.7235 157.167 71.6124C159.294 74.8346 159.77 79.9774 158.325 83.8028C156.738 87.9616 152.802 90.787 147.262 91.7235C145.548 92.0251 141.484 91.9774 139.643 91.6441C135.627 90.9298 131.818 88.9457 129.468 86.3425C128.548 85.3266 126.754 82.6759 126.865 82.4854C126.913 82.4219 127.325 82.1679 127.786 81.8981C128.23 81.6441 129.913 80.6759 131.5 79.7552L134.373 78.0885L134.976 78.9774C135.818 80.2631 137.659 82.0251 138.77 82.6124C141.96 84.2949 146.341 84.0568 148.5 82.1203C149.421 81.279 149.802 80.406 149.802 79.1203C149.802 77.9616 149.659 77.4536 149.056 76.5806C148.278 75.4695 146.691 74.533 142.183 72.5806C137.024 70.3584 134.802 68.9774 132.77 66.787C131.595 65.5171 130.484 63.4854 130.024 61.787C129.643 60.3743 129.548 56.8346 129.849 55.406C130.913 50.4219 134.675 46.9457 140.103 45.9139C141.865 45.5806 145.96 45.7076 147.691 46.1362Z" fill="white"/>
</g>
<defs>
<filter id="filter0_d_376_22" x="27.2719" y="0" width="185.451" height="163.144" filterUnits="userSpaceOnUse" color-interpolation-filters="sRGB">
<feFlood flood-opacity="0" result="BackgroundImageFix"/>
<feColorMatrix in="SourceAlpha" type="matrix" values="0 0 0 0 0 0 0 0 0 0 0 0 0 0 0 0 0 0 127 0" result="hardAlpha"/>
<feOffset dy="4"/>
<feGaussianBlur stdDeviation="2"/>
<feComposite in2="hardAlpha" operator="out"/>
<feColorMatrix type="matrix" values="0 0 0 0 0 0 0 0 0 0 0 0 0 0 0 0 0 0 0.25 0"/>
<feBlend mode="normal" in2="BackgroundImageFix" result="effect1_dropShadow_376_22"/>
<feBlend mode="normal" in="SourceGraphic" in2="effect1_dropShadow_376_22" result="shape"/>
</filter>
</defs>
</svg>
