<?xml version="1.0" standalone="no"?>
<svg xmlns:xlink="http://www.w3.org/1999/xlink" id="wave" style="transform:rotate(0deg); transition: 0.3s" viewBox="0 0 1440 370" version="1.1" xmlns="http://www.w3.org/2000/svg"><defs><linearGradient id="sw-gradient-0" x1="0" x2="0" y1="1" y2="0"><stop stop-color="rgba(2.834, 3.392, 34.472, 1)" offset="0%"/><stop stop-color="rgba(9.101, 53.522, 86.838, 1)" offset="100%"/></linearGradient></defs><path style="transform:translate(0, 0px); opacity:1" fill="url(#sw-gradient-0)" d="M0,0L60,24.7C120,49,240,99,360,104.8C480,111,600,74,720,49.3C840,25,960,12,1080,61.7C1200,111,1320,222,1440,234.3C1560,247,1680,160,1800,154.2C1920,148,2040,222,2160,222C2280,222,2400,148,2520,117.2C2640,86,2760,99,2880,135.7C3000,173,3120,234,3240,246.7C3360,259,3480,222,3600,178.8C3720,136,3840,86,3960,67.8C4080,49,4200,62,4320,98.7C4440,136,4560,197,4680,240.5C4800,284,4920,308,5040,289.8C5160,271,5280,210,5400,203.5C5520,197,5640,247,5760,246.7C5880,247,6000,197,6120,154.2C6240,111,6360,74,6480,92.5C6600,111,6720,185,6840,178.8C6960,173,7080,86,7200,86.3C7320,86,7440,173,7560,222C7680,271,7800,284,7920,259C8040,234,8160,173,8280,172.7C8400,173,8520,234,8580,265.2L8640,296L8640,370L8580,370C8520,370,8400,370,8280,370C8160,370,8040,370,7920,370C7800,370,7680,370,7560,370C7440,370,7320,370,7200,370C7080,370,6960,370,6840,370C6720,370,6600,370,6480,370C6360,370,6240,370,6120,370C6000,370,5880,370,5760,370C5640,370,5520,370,5400,370C5280,370,5160,370,5040,370C4920,370,4800,370,4680,370C4560,370,4440,370,4320,370C4200,370,4080,370,3960,370C3840,370,3720,370,3600,370C3480,370,3360,370,3240,370C3120,370,3000,370,2880,370C2760,370,2640,370,2520,370C2400,370,2280,370,2160,370C2040,370,1920,370,1800,370C1680,370,1560,370,1440,370C1320,370,1200,370,1080,370C960,370,840,370,720,370C600,370,480,370,360,370C240,370,120,370,60,370L0,370Z"/><defs><linearGradient id="sw-gradient-1" x1="0" x2="0" y1="1" y2="0"><stop stop-color="rgba(11, 41, 64, 1)" offset="0%"/><stop stop-color="rgba(57.185, 53.103, 80.008, 1)" offset="100%"/></linearGradient></defs><path style="transform:translate(0, 50px); opacity:0.9" fill="url(#sw-gradient-1)" d="M0,333L60,289.8C120,247,240,160,360,141.8C480,123,600,173,720,197.3C840,222,960,222,1080,185C1200,148,1320,74,1440,43.2C1560,12,1680,25,1800,74C1920,123,2040,210,2160,228.2C2280,247,2400,197,2520,178.8C2640,160,2760,173,2880,178.8C3000,185,3120,185,3240,178.8C3360,173,3480,160,3600,172.7C3720,185,3840,222,3960,252.8C4080,284,4200,308,4320,271.3C4440,234,4560,136,4680,80.2C4800,25,4920,12,5040,37C5160,62,5280,123,5400,148C5520,173,5640,160,5760,172.7C5880,185,6000,222,6120,209.7C6240,197,6360,136,6480,148C6600,160,6720,247,6840,252.8C6960,259,7080,185,7200,154.2C7320,123,7440,136,7560,148C7680,160,7800,173,7920,154.2C8040,136,8160,86,8280,80.2C8400,74,8520,111,8580,129.5L8640,148L8640,370L8580,370C8520,370,8400,370,8280,370C8160,370,8040,370,7920,370C7800,370,7680,370,7560,370C7440,370,7320,370,7200,370C7080,370,6960,370,6840,370C6720,370,6600,370,6480,370C6360,370,6240,370,6120,370C6000,370,5880,370,5760,370C5640,370,5520,370,5400,370C5280,370,5160,370,5040,370C4920,370,4800,370,4680,370C4560,370,4440,370,4320,370C4200,370,4080,370,3960,370C3840,370,3720,370,3600,370C3480,370,3360,370,3240,370C3120,370,3000,370,2880,370C2760,370,2640,370,2520,370C2400,370,2280,370,2160,370C2040,370,1920,370,1800,370C1680,370,1560,370,1440,370C1320,370,1200,370,1080,370C960,370,840,370,720,370C600,370,480,370,360,370C240,370,120,370,60,370L0,370Z"/></svg>