<svg id="visual" viewBox="0 0 900 600" width="900" height="600" xmlns="http://www.w3.org/2000/svg" xmlns:xlink="http://www.w3.org/1999/xlink" version="1.1"><rect x="0" y="0" width="900" height="600" fill="#0e1d2c"></rect><g transform="translate(457.76666230925287 354.14108213206646)"><path d="M238.9 -373.9C327.9 -314.6 430.9 -279.2 462.4 -211C493.9 -142.7 453.8 -41.6 411.8 39.7C369.8 121.1 325.8 182.7 271 220.7C216.1 258.8 150.3 273.3 80.7 309.9C11 346.4 -62.5 404.9 -124.9 398.7C-187.2 392.6 -238.3 321.7 -312.8 258.4C-387.3 195.1 -485.2 139.5 -489.1 73.9C-493 8.2 -402.9 -67.3 -336.8 -129.5C-270.6 -191.7 -228.3 -240.6 -176.1 -316.7C-124 -392.9 -62 -496.5 6.5 -506.6C75 -516.7 149.9 -433.3 238.9 -373.9" fill="#0e1420"></path></g></svg>