<svg id="visual" viewBox="0 0 900 600" width="900" height="600" xmlns="http://www.w3.org/2000/svg" xmlns:xlink="http://www.w3.org/1999/xlink" version="1.1"><g stroke-width="1" stroke-linejoin="bevel"><path d="M515 276L520 376L568 275Z" fill="#071e2b" stroke="#071e2b"></path><path d="M520 376L632 370L568 275Z" fill="#061925" stroke="#061925"></path><path d="M632 370L685 311L568 275Z" fill="#071e2b" stroke="#071e2b"></path><path d="M520 376L529 470L632 370Z" fill="#061925" stroke="#061925"></path><path d="M668 184L593 177L568 275Z" fill="#041621" stroke="#041621"></path><path d="M568 275L510 161L515 276Z" fill="#071b27" stroke="#071b27"></path><path d="M390 261L391 384L515 276Z" fill="#061925" stroke="#061925"></path><path d="M515 276L391 384L520 376Z" fill="#071d29" stroke="#071d29"></path><path d="M520 376L391 384L529 470Z" fill="#08222f" stroke="#08222f"></path><path d="M428 175L390 261L515 276Z" fill="#08222f" stroke="#08222f"></path><path d="M593 177L510 161L568 275Z" fill="#08202d" stroke="#08202d"></path><path d="M510 161L428 175L515 276Z" fill="#071d29" stroke="#071d29"></path><path d="M685 311L668 184L568 275Z" fill="#051723" stroke="#051723"></path><path d="M593 177L619 128L510 161Z" fill="#08202d" stroke="#08202d"></path><path d="M632 370L731 368L685 311Z" fill="#031420" stroke="#031420"></path><path d="M685 311L784 176L668 184Z" fill="#071b27" stroke="#071b27"></path><path d="M728 505L731 368L632 370Z" fill="#041621" stroke="#041621"></path><path d="M529 470L633 515L632 370Z" fill="#071e2b" stroke="#071e2b"></path><path d="M668 184L619 128L593 177Z" fill="#00101c" stroke="#00101c"></path><path d="M474 73L381 136L428 175Z" fill="#041621" stroke="#041621"></path><path d="M265 416L374 489L391 384Z" fill="#08202d" stroke="#08202d"></path><path d="M391 384L374 489L529 470Z" fill="#071d29" stroke="#071d29"></path><path d="M529 470L610 600L633 515Z" fill="#031420" stroke="#031420"></path><path d="M474 73L428 175L510 161Z" fill="#02121e" stroke="#02121e"></path><path d="M428 175L381 136L390 261Z" fill="#031420" stroke="#031420"></path><path d="M390 261L284 298L391 384Z" fill="#08202d" stroke="#08202d"></path><path d="M633 515L728 505L632 370Z" fill="#071e2b" stroke="#071e2b"></path><path d="M281 187L284 298L390 261Z" fill="#00101c" stroke="#00101c"></path><path d="M619 128L474 73L510 161Z" fill="#00101c" stroke="#00101c"></path><path d="M728 505L808 400L731 368Z" fill="#071b27" stroke="#071b27"></path><path d="M836 327L784 176L685 311Z" fill="#061925" stroke="#061925"></path><path d="M374 489L503 600L529 470Z" fill="#08222f" stroke="#08222f"></path><path d="M633 515L733 600L728 505Z" fill="#061925" stroke="#061925"></path><path d="M503 600L610 600L529 470Z" fill="#00101c" stroke="#00101c"></path><path d="M836 327L685 311L731 368Z" fill="#041621" stroke="#041621"></path><path d="M668 184L695 80L619 128Z" fill="#08222f" stroke="#08222f"></path><path d="M619 128L533 0L474 73Z" fill="#071b27" stroke="#071b27"></path><path d="M784 176L695 80L668 184Z" fill="#051723" stroke="#051723"></path><path d="M284 298L265 416L391 384Z" fill="#08202d" stroke="#08202d"></path><path d="M374 489L398 600L503 600Z" fill="#00101c" stroke="#00101c"></path><path d="M808 400L836 327L731 368Z" fill="#051723" stroke="#051723"></path><path d="M381 136L281 187L390 261Z" fill="#08202d" stroke="#08202d"></path><path d="M284 298L200 388L265 416Z" fill="#051723" stroke="#051723"></path><path d="M264 102L281 187L381 136Z" fill="#00101c" stroke="#00101c"></path><path d="M766 600L801 497L728 505Z" fill="#041621" stroke="#041621"></path><path d="M728 505L801 497L808 400Z" fill="#071b27" stroke="#071b27"></path><path d="M900 410L900 314L836 327Z" fill="#08202d" stroke="#08202d"></path><path d="M309 533L398 600L374 489Z" fill="#08222f" stroke="#08222f"></path><path d="M265 416L309 533L374 489Z" fill="#051723" stroke="#051723"></path><path d="M629 0L533 0L619 128Z" fill="#02121e" stroke="#02121e"></path><path d="M320 0L264 102L381 136Z" fill="#08222f" stroke="#08222f"></path><path d="M221 109L233 218L281 187Z" fill="#08202d" stroke="#08202d"></path><path d="M281 187L233 218L284 298Z" fill="#061925" stroke="#061925"></path><path d="M610 600L733 600L633 515Z" fill="#071b27" stroke="#071b27"></path><path d="M695 80L629 0L619 128Z" fill="#061925" stroke="#061925"></path><path d="M715 0L629 0L695 80Z" fill="#051723" stroke="#051723"></path><path d="M169 284L200 388L284 298Z" fill="#071d29" stroke="#071d29"></path><path d="M265 416L187 530L309 533Z" fill="#041621" stroke="#041621"></path><path d="M900 104L784 71L784 176Z" fill="#071e2b" stroke="#071e2b"></path><path d="M784 176L784 71L695 80Z" fill="#08202d" stroke="#08202d"></path><path d="M733 600L766 600L728 505Z" fill="#08202d" stroke="#08202d"></path><path d="M368 0L381 136L474 73Z" fill="#031420" stroke="#031420"></path><path d="M187 530L315 600L309 533Z" fill="#061925" stroke="#061925"></path><path d="M309 533L315 600L398 600Z" fill="#02121e" stroke="#02121e"></path><path d="M900 410L836 327L808 400Z" fill="#031420" stroke="#031420"></path><path d="M836 327L900 230L784 176Z" fill="#041621" stroke="#041621"></path><path d="M900 410L808 400L801 497Z" fill="#08222f" stroke="#08222f"></path><path d="M900 537L900 410L801 497Z" fill="#051723" stroke="#051723"></path><path d="M784 71L715 0L695 80Z" fill="#08222f" stroke="#08222f"></path><path d="M533 0L368 0L474 73Z" fill="#071e2b" stroke="#071e2b"></path><path d="M900 314L900 230L836 327Z" fill="#071e2b" stroke="#071e2b"></path><path d="M100 289L169 284L69 176Z" fill="#08202d" stroke="#08202d"></path><path d="M233 218L169 284L284 298Z" fill="#061925" stroke="#061925"></path><path d="M264 102L221 109L281 187Z" fill="#02121e" stroke="#02121e"></path><path d="M207 0L221 109L264 102Z" fill="#02121e" stroke="#02121e"></path><path d="M368 0L320 0L381 136Z" fill="#08202d" stroke="#08202d"></path><path d="M96 396L187 530L200 388Z" fill="#071b27" stroke="#071b27"></path><path d="M200 388L187 530L265 416Z" fill="#02121e" stroke="#02121e"></path><path d="M766 600L900 537L801 497Z" fill="#071e2b" stroke="#071e2b"></path><path d="M900 104L807 0L784 71Z" fill="#071e2b" stroke="#071e2b"></path><path d="M784 71L807 0L715 0Z" fill="#051723" stroke="#051723"></path><path d="M900 230L900 104L784 176Z" fill="#051723" stroke="#051723"></path><path d="M69 176L169 284L233 218Z" fill="#08222f" stroke="#08222f"></path><path d="M169 284L96 396L200 388Z" fill="#071d29" stroke="#071d29"></path><path d="M766 600L900 600L900 537Z" fill="#00101c" stroke="#00101c"></path><path d="M100 289L96 396L169 284Z" fill="#031420" stroke="#031420"></path><path d="M320 0L207 0L264 102Z" fill="#061925" stroke="#061925"></path><path d="M221 109L69 176L233 218Z" fill="#08202d" stroke="#08202d"></path><path d="M120 531L165 600L187 530Z" fill="#071b27" stroke="#071b27"></path><path d="M187 530L165 600L315 600Z" fill="#02121e" stroke="#02121e"></path><path d="M96 396L120 531L187 530Z" fill="#02121e" stroke="#02121e"></path><path d="M900 104L900 0L807 0Z" fill="#00101c" stroke="#00101c"></path><path d="M65 95L69 176L221 109Z" fill="#071b27" stroke="#071b27"></path><path d="M100 289L0 326L96 396Z" fill="#061925" stroke="#061925"></path><path d="M0 510L120 531L96 396Z" fill="#071d29" stroke="#071d29"></path><path d="M0 510L106 600L120 531Z" fill="#08222f" stroke="#08222f"></path><path d="M120 531L106 600L165 600Z" fill="#08202d" stroke="#08202d"></path><path d="M207 0L65 95L221 109Z" fill="#061925" stroke="#061925"></path><path d="M0 197L0 326L100 289Z" fill="#00101c" stroke="#00101c"></path><path d="M0 197L100 289L69 176Z" fill="#071e2b" stroke="#071e2b"></path><path d="M0 326L0 374L96 396Z" fill="#02121e" stroke="#02121e"></path><path d="M0 92L0 197L69 176Z" fill="#02121e" stroke="#02121e"></path><path d="M207 0L71 0L65 95Z" fill="#071e2b" stroke="#071e2b"></path><path d="M65 95L0 92L69 176Z" fill="#051723" stroke="#051723"></path><path d="M0 374L0 510L96 396Z" fill="#031420" stroke="#031420"></path><path d="M0 0L0 92L65 95Z" fill="#08222f" stroke="#08222f"></path><path d="M0 510L0 600L106 600Z" fill="#071e2b" stroke="#071e2b"></path><path d="M71 0L0 0L65 95Z" fill="#051723" stroke="#051723"></path></g></svg>