<svg id="visual" viewBox="0 0 900 600" width="900" height="600" xmlns="http://www.w3.org/2000/svg" xmlns:xlink="http://www.w3.org/1999/xlink" version="1.1"><g stroke-width="1" stroke-linejoin="bevel"><path d="M399 334L286 367L370 379Z" fill="#081b24" stroke="#081b24"></path><path d="M399 334L276 266L286 367Z" fill="#03141f" stroke="#03141f"></path><path d="M276 266L230 290L286 367Z" fill="#00101c" stroke="#00101c"></path><path d="M376 200L273 215L276 266Z" fill="#02131e" stroke="#02131e"></path><path d="M276 266L273 215L230 290Z" fill="#02131e" stroke="#02131e"></path><path d="M399 334L376 200L276 266Z" fill="#041620" stroke="#041620"></path><path d="M263 61L217 196L273 215Z" fill="#061822" stroke="#061822"></path><path d="M273 215L217 196L230 290Z" fill="#03141f" stroke="#03141f"></path><path d="M390 530L507 400L370 379Z" fill="#061822" stroke="#061822"></path><path d="M370 379L507 400L399 334Z" fill="#051721" stroke="#051721"></path><path d="M399 334L539 269L376 200Z" fill="#02131e" stroke="#02131e"></path><path d="M117 328L171 429L230 290Z" fill="#01121d" stroke="#01121d"></path><path d="M230 290L171 429L286 367Z" fill="#051721" stroke="#051721"></path><path d="M286 367L319 523L370 379Z" fill="#02131e" stroke="#02131e"></path><path d="M171 429L319 523L286 367Z" fill="#081b24" stroke="#081b24"></path><path d="M507 400L539 269L399 334Z" fill="#01121d" stroke="#01121d"></path><path d="M319 523L390 530L370 379Z" fill="#01121d" stroke="#01121d"></path><path d="M217 196L117 328L230 290Z" fill="#02131e" stroke="#02131e"></path><path d="M520 137L360 97L376 200Z" fill="#051721" stroke="#051721"></path><path d="M376 200L360 97L273 215Z" fill="#01121d" stroke="#01121d"></path><path d="M390 530L522 475L507 400Z" fill="#081a23" stroke="#081a23"></path><path d="M507 400L635 307L539 269Z" fill="#01121d" stroke="#01121d"></path><path d="M539 269L526 170L376 200Z" fill="#01121d" stroke="#01121d"></path><path d="M99 525L184 536L171 429Z" fill="#00101c" stroke="#00101c"></path><path d="M171 429L184 536L319 523Z" fill="#061822" stroke="#061822"></path><path d="M319 523L283 600L390 530Z" fill="#041620" stroke="#041620"></path><path d="M526 170L520 137L376 200Z" fill="#02131e" stroke="#02131e"></path><path d="M360 97L263 61L273 215Z" fill="#061822" stroke="#061822"></path><path d="M217 196L80 173L117 328Z" fill="#00101c" stroke="#00101c"></path><path d="M320 0L263 61L360 97Z" fill="#081a23" stroke="#081a23"></path><path d="M184 536L283 600L319 523Z" fill="#01121d" stroke="#01121d"></path><path d="M390 530L473 600L522 475Z" fill="#071923" stroke="#071923"></path><path d="M117 328L72 425L171 429Z" fill="#051721" stroke="#051721"></path><path d="M283 600L418 600L390 530Z" fill="#081b24" stroke="#081b24"></path><path d="M263 61L177 79L217 196Z" fill="#041620" stroke="#041620"></path><path d="M117 328L0 381L72 425Z" fill="#041620" stroke="#041620"></path><path d="M177 79L80 173L217 196Z" fill="#091c25" stroke="#091c25"></path><path d="M526 170L594 137L520 137Z" fill="#03141f" stroke="#03141f"></path><path d="M539 269L592 174L526 170Z" fill="#061822" stroke="#061822"></path><path d="M635 307L592 174L539 269Z" fill="#02131e" stroke="#02131e"></path><path d="M631 424L635 307L507 400Z" fill="#051721" stroke="#051721"></path><path d="M184 536L211 600L283 600Z" fill="#041620" stroke="#041620"></path><path d="M139 600L211 600L184 536Z" fill="#051721" stroke="#051721"></path><path d="M418 600L473 600L390 530Z" fill="#01121d" stroke="#01121d"></path><path d="M522 475L631 424L507 400Z" fill="#081b24" stroke="#081b24"></path><path d="M72 425L99 525L171 429Z" fill="#071923" stroke="#071923"></path><path d="M635 462L631 424L522 475Z" fill="#041620" stroke="#041620"></path><path d="M660 90L594 137L716 183Z" fill="#061822" stroke="#061822"></path><path d="M592 174L594 137L526 170Z" fill="#02131e" stroke="#02131e"></path><path d="M370 0L320 0L360 97Z" fill="#081a23" stroke="#081a23"></path><path d="M370 0L360 97L493 0Z" fill="#03141f" stroke="#03141f"></path><path d="M263 61L219 0L177 79Z" fill="#091c25" stroke="#091c25"></path><path d="M493 0L360 97L520 137Z" fill="#02131e" stroke="#02131e"></path><path d="M611 600L635 462L522 475Z" fill="#041620" stroke="#041620"></path><path d="M712 427L673 274L635 307Z" fill="#091c25" stroke="#091c25"></path><path d="M99 525L139 600L184 536Z" fill="#00101c" stroke="#00101c"></path><path d="M0 264L0 381L117 328Z" fill="#03141f" stroke="#03141f"></path><path d="M72 425L0 490L99 525Z" fill="#061822" stroke="#061822"></path><path d="M99 525L0 600L139 600Z" fill="#061822" stroke="#061822"></path><path d="M80 173L0 264L117 328Z" fill="#091c25" stroke="#091c25"></path><path d="M219 0L106 71L177 79Z" fill="#00101c" stroke="#00101c"></path><path d="M177 79L106 71L80 173Z" fill="#041620" stroke="#041620"></path><path d="M80 173L0 171L0 264Z" fill="#071923" stroke="#071923"></path><path d="M712 427L635 307L631 424Z" fill="#061822" stroke="#061822"></path><path d="M635 307L673 274L592 174Z" fill="#00101c" stroke="#00101c"></path><path d="M320 0L219 0L263 61Z" fill="#02131e" stroke="#02131e"></path><path d="M594 137L493 0L520 137Z" fill="#00101c" stroke="#00101c"></path><path d="M0 81L0 171L80 173Z" fill="#081a23" stroke="#081a23"></path><path d="M0 381L0 490L72 425Z" fill="#061822" stroke="#061822"></path><path d="M473 600L611 600L522 475Z" fill="#02131e" stroke="#02131e"></path><path d="M635 462L712 427L631 424Z" fill="#081a23" stroke="#081a23"></path><path d="M730 527L712 427L635 462Z" fill="#081b24" stroke="#081b24"></path><path d="M716 183L594 137L592 174Z" fill="#01121d" stroke="#01121d"></path><path d="M594 137L632 0L493 0Z" fill="#041620" stroke="#041620"></path><path d="M716 183L592 174L673 274Z" fill="#041620" stroke="#041620"></path><path d="M779 267L716 183L673 274Z" fill="#00101c" stroke="#00101c"></path><path d="M106 71L0 81L80 173Z" fill="#02131e" stroke="#02131e"></path><path d="M76 0L0 81L106 71Z" fill="#051721" stroke="#051721"></path><path d="M219 0L76 0L106 71Z" fill="#041620" stroke="#041620"></path><path d="M0 490L0 600L99 525Z" fill="#03141f" stroke="#03141f"></path><path d="M685 0L632 0L660 90Z" fill="#071923" stroke="#071923"></path><path d="M660 90L632 0L594 137Z" fill="#02131e" stroke="#02131e"></path><path d="M611 600L680 600L635 462Z" fill="#03141f" stroke="#03141f"></path><path d="M680 600L730 527L635 462Z" fill="#041620" stroke="#041620"></path><path d="M712 427L779 267L673 274Z" fill="#081b24" stroke="#081b24"></path><path d="M808 401L779 267L712 427Z" fill="#051721" stroke="#051721"></path><path d="M836 120L685 0L660 90Z" fill="#081b24" stroke="#081b24"></path><path d="M76 0L0 0L0 81Z" fill="#091c25" stroke="#091c25"></path><path d="M680 600L761 524L730 527Z" fill="#02131e" stroke="#02131e"></path><path d="M730 527L761 524L712 427Z" fill="#081b24" stroke="#081b24"></path><path d="M836 120L660 90L716 183Z" fill="#071923" stroke="#071923"></path><path d="M761 524L808 401L712 427Z" fill="#03141f" stroke="#03141f"></path><path d="M900 308L835 217L779 267Z" fill="#00101c" stroke="#00101c"></path><path d="M779 267L835 217L716 183Z" fill="#091c25" stroke="#091c25"></path><path d="M835 217L836 120L716 183Z" fill="#071923" stroke="#071923"></path><path d="M680 600L825 600L761 524Z" fill="#091c25" stroke="#091c25"></path><path d="M900 509L900 402L808 401Z" fill="#091c25" stroke="#091c25"></path><path d="M808 401L900 308L779 267Z" fill="#071923" stroke="#071923"></path><path d="M900 402L900 308L808 401Z" fill="#061822" stroke="#061822"></path><path d="M835 217L900 189L836 120Z" fill="#081b24" stroke="#081b24"></path><path d="M900 509L808 401L761 524Z" fill="#081a23" stroke="#081a23"></path><path d="M900 308L900 189L835 217Z" fill="#041620" stroke="#041620"></path><path d="M900 90L831 0L836 120Z" fill="#03141f" stroke="#03141f"></path><path d="M836 120L831 0L685 0Z" fill="#091c25" stroke="#091c25"></path><path d="M825 600L900 509L761 524Z" fill="#071923" stroke="#071923"></path><path d="M900 189L900 90L836 120Z" fill="#071923" stroke="#071923"></path><path d="M825 600L900 600L900 509Z" fill="#041620" stroke="#041620"></path><path d="M900 90L900 0L831 0Z" fill="#02131e" stroke="#02131e"></path></g></svg>