<?xml version="1.0" standalone="no"?>
<svg xmlns:xlink="http://www.w3.org/1999/xlink" id="wave" style="transform:rotate(180deg); transition: 0.3s" viewBox="0 0 1440 370" version="1.1" xmlns="http://www.w3.org/2000/svg"><defs><linearGradient id="sw-gradient-0" x1="0" x2="0" y1="1" y2="0"><stop stop-color="rgba(24.87, 21.116, 45.856, 1)" offset="0%"/><stop stop-color="rgba(72.606, 34.594, 86.838, 1)" offset="100%"/></linearGradient></defs><path style="transform:translate(0, 0px); opacity:1" fill="url(#sw-gradient-0)" d="M0,0L48,6.2C96,12,192,25,288,74C384,123,480,210,576,240.5C672,271,768,247,864,215.8C960,185,1056,148,1152,148C1248,148,1344,185,1440,203.5C1536,222,1632,222,1728,222C1824,222,1920,222,2016,185C2112,148,2208,74,2304,86.3C2400,99,2496,197,2592,215.8C2688,234,2784,173,2880,154.2C2976,136,3072,160,3168,191.2C3264,222,3360,259,3456,283.7C3552,308,3648,321,3744,314.5C3840,308,3936,284,4032,240.5C4128,197,4224,136,4320,148C4416,160,4512,247,4608,289.8C4704,333,4800,333,4896,289.8C4992,247,5088,160,5184,104.8C5280,49,5376,25,5472,67.8C5568,111,5664,222,5760,252.8C5856,284,5952,234,6048,203.5C6144,173,6240,160,6336,148C6432,136,6528,123,6624,104.8C6720,86,6816,62,6864,49.3L6912,37L6912,370L6864,370C6816,370,6720,370,6624,370C6528,370,6432,370,6336,370C6240,370,6144,370,6048,370C5952,370,5856,370,5760,370C5664,370,5568,370,5472,370C5376,370,5280,370,5184,370C5088,370,4992,370,4896,370C4800,370,4704,370,4608,370C4512,370,4416,370,4320,370C4224,370,4128,370,4032,370C3936,370,3840,370,3744,370C3648,370,3552,370,3456,370C3360,370,3264,370,3168,370C3072,370,2976,370,2880,370C2784,370,2688,370,2592,370C2496,370,2400,370,2304,370C2208,370,2112,370,2016,370C1920,370,1824,370,1728,370C1632,370,1536,370,1440,370C1344,370,1248,370,1152,370C1056,370,960,370,864,370C768,370,672,370,576,370C480,370,384,370,288,370C192,370,96,370,48,370L0,370Z"/><defs><linearGradient id="sw-gradient-1" x1="0" x2="0" y1="1" y2="0"><stop stop-color="rgba(30.881, 19.342, 59.517, 1)" offset="0%"/><stop stop-color="rgba(13.525, 12.616, 68.624, 1)" offset="100%"/></linearGradient></defs><path style="transform:translate(0, 50px); opacity:0.9" fill="url(#sw-gradient-1)" d="M0,0L48,30.8C96,62,192,123,288,141.8C384,160,480,136,576,104.8C672,74,768,37,864,55.5C960,74,1056,148,1152,172.7C1248,197,1344,173,1440,148C1536,123,1632,99,1728,129.5C1824,160,1920,247,2016,277.5C2112,308,2208,284,2304,252.8C2400,222,2496,185,2592,160.3C2688,136,2784,123,2880,141.8C2976,160,3072,210,3168,240.5C3264,271,3360,284,3456,277.5C3552,271,3648,247,3744,252.8C3840,259,3936,296,4032,259C4128,222,4224,111,4320,111C4416,111,4512,222,4608,277.5C4704,333,4800,333,4896,314.5C4992,296,5088,259,5184,203.5C5280,148,5376,74,5472,74C5568,74,5664,148,5760,166.5C5856,185,5952,148,6048,111C6144,74,6240,37,6336,24.7C6432,12,6528,25,6624,61.7C6720,99,6816,160,6864,191.2L6912,222L6912,370L6864,370C6816,370,6720,370,6624,370C6528,370,6432,370,6336,370C6240,370,6144,370,6048,370C5952,370,5856,370,5760,370C5664,370,5568,370,5472,370C5376,370,5280,370,5184,370C5088,370,4992,370,4896,370C4800,370,4704,370,4608,370C4512,370,4416,370,4320,370C4224,370,4128,370,4032,370C3936,370,3840,370,3744,370C3648,370,3552,370,3456,370C3360,370,3264,370,3168,370C3072,370,2976,370,2880,370C2784,370,2688,370,2592,370C2496,370,2400,370,2304,370C2208,370,2112,370,2016,370C1920,370,1824,370,1728,370C1632,370,1536,370,1440,370C1344,370,1248,370,1152,370C1056,370,960,370,864,370C768,370,672,370,576,370C480,370,384,370,288,370C192,370,96,370,48,370L0,370Z"/></svg>