<svg id="visual" viewBox="0 0 900 600" width="900" height="600" xmlns="http://www.w3.org/2000/svg" xmlns:xlink="http://www.w3.org/1999/xlink" version="1.1"><rect x="0" y="0" width="900" height="600" fill="#001220"></rect><defs><linearGradient id="grad1_0" x1="33.3%" y1="0%" x2="100%" y2="100%"><stop offset="20%" stop-color="#001220" stop-opacity="1"></stop><stop offset="80%" stop-color="#001220" stop-opacity="1"></stop></linearGradient></defs><defs><linearGradient id="grad2_0" x1="0%" y1="0%" x2="66.7%" y2="100%"><stop offset="20%" stop-color="#001220" stop-opacity="1"></stop><stop offset="80%" stop-color="#001220" stop-opacity="1"></stop></linearGradient></defs><g transform="translate(900, 0)"><path d="M0 270.4C-22.2 264.8 -44.3 259.1 -68.3 255C-92.4 250.9 -118.3 248.3 -135.2 234.2C-152.2 220 -160.1 194.3 -176.8 176.8C-193.4 159.3 -218.7 150 -228.6 132C-238.6 114 -233.2 87.1 -237.6 63.7C-242 40.2 -256.2 20.1 -270.4 0L0 0Z" fill="#12092a"></path></g><g transform="translate(0, 600)"><path d="M0 -270.4C19.5 -255.3 39 -240.3 63.7 -237.6C88.3 -235 118.2 -244.8 134.5 -233C150.8 -221.2 153.6 -187.8 169.7 -169.7C185.8 -151.6 215.2 -148.8 233 -134.5C250.7 -120.2 256.9 -94.3 261.2 -70C265.5 -45.7 268 -22.8 270.4 0L0 0Z" fill="#12092a"></path></g></svg>