<svg id="visual" viewBox="0 0 900 600" width="900" height="600" xmlns="http://www.w3.org/2000/svg" xmlns:xlink="http://www.w3.org/1999/xlink" version="1.1"><rect x="0" y="0" width="900" height="600" fill="#001220"></rect><defs><linearGradient id="grad1_0" x1="33.3%" y1="100%" x2="100%" y2="0%"><stop offset="20%" stop-color="#001220" stop-opacity="1"></stop><stop offset="80%" stop-color="#001220" stop-opacity="1"></stop></linearGradient></defs><defs><linearGradient id="grad2_0" x1="0%" y1="100%" x2="66.7%" y2="0%"><stop offset="20%" stop-color="#001220" stop-opacity="1"></stop><stop offset="80%" stop-color="#001220" stop-opacity="1"></stop></linearGradient></defs><g transform="translate(900, 600)"><path d="M-216.3 0C-212.2 -40.4 -208 -80.9 -187.3 -108.2C-166.7 -135.5 -129.5 -149.6 -95.5 -165.4C-61.5 -181.2 -30.8 -198.8 0 -216.3L0 0Z" fill="#081c31"></path></g><g transform="translate(0, 0)"><path d="M216.3 0C198.8 30.8 181.2 61.5 165.4 95.5C149.6 129.5 135.5 166.7 108.2 187.3C80.9 208 40.4 212.2 0 216.3L0 0Z" fill="#081c31"></path></g></svg>