<svg id="visual" viewBox="0 0 900 600" width="900" height="600" xmlns="http://www.w3.org/2000/svg" xmlns:xlink="http://www.w3.org/1999/xlink" version="1.1"><rect x="0" y="0" width="900" height="600" fill="#001220"></rect><defs><linearGradient id="grad1_0" x1="33.3%" y1="100%" x2="100%" y2="0%"><stop offset="20%" stop-color="#001220" stop-opacity="1"></stop><stop offset="80%" stop-color="#001220" stop-opacity="1"></stop></linearGradient></defs><defs><linearGradient id="grad2_0" x1="0%" y1="100%" x2="66.7%" y2="0%"><stop offset="20%" stop-color="#001220" stop-opacity="1"></stop><stop offset="80%" stop-color="#001220" stop-opacity="1"></stop></linearGradient></defs><g transform="translate(900, 600)"><path d="M-324.5 0C-322.7 -44.1 -320.8 -88.2 -299.8 -124.2C-278.8 -160.2 -238.5 -188.1 -200.8 -200.8C-163.1 -213.5 -128 -211 -94.9 -229.1C-61.9 -247.2 -30.9 -285.9 0 -324.5L0 0Z" fill="#081c31"></path></g><g transform="translate(0, 0)"><path d="M324.5 0C326.2 47.4 327.9 94.9 299.8 124.2C271.7 153.5 213.9 164.7 175.4 175.4C136.8 186 117.5 196 91.5 220.8C65.4 245.6 32.7 285 0 324.5L0 0Z" fill="#081c31"></path></g></svg>