<svg id="visual" viewBox="0 0 900 600" width="900" height="600" xmlns="http://www.w3.org/2000/svg" xmlns:xlink="http://www.w3.org/1999/xlink" version="1.1"><rect x="0" y="0" width="900" height="600" fill="#001220"></rect><defs><linearGradient id="grad1_0" x1="33.3%" y1="0%" x2="100%" y2="100%"><stop offset="20%" stop-color="#001220" stop-opacity="1"></stop><stop offset="80%" stop-color="#001220" stop-opacity="1"></stop></linearGradient></defs><defs><linearGradient id="grad2_0" x1="0%" y1="0%" x2="66.7%" y2="100%"><stop offset="20%" stop-color="#001220" stop-opacity="1"></stop><stop offset="80%" stop-color="#001220" stop-opacity="1"></stop></linearGradient></defs><g transform="translate(900, 0)"><path d="M0 270.4C-41.7 254.1 -83.4 237.9 -125.5 217.4C-167.6 196.9 -210 172.1 -234.2 135.2C-258.4 98.3 -264.4 49.1 -270.4 0L0 0Z" fill="#12092a"></path></g><g transform="translate(0, 600)"><path d="M0 -270.4C48.2 -263.9 96.4 -257.3 135.2 -234.2C174 -211 203.3 -171.3 224.3 -129.5C245.3 -87.7 257.8 -43.9 270.4 0L0 0Z" fill="#12092a"></path></g></svg>