<svg id="visual" viewBox="0 0 900 600" width="900" height="600" xmlns="http://www.w3.org/2000/svg" xmlns:xlink="http://www.w3.org/1999/xlink" version="1.1"><rect x="0" y="0" width="900" height="600" fill="#070514"></rect><path d="M276 0L263.7 14.3C251.3 28.7 226.7 57.3 232.7 85.8C238.7 114.3 275.3 142.7 282.5 171.2C289.7 199.7 267.3 228.3 247.2 257C227 285.7 209 314.3 217.7 343C226.3 371.7 261.7 400.3 265.5 428.8C269.3 457.3 241.7 485.7 224 514.2C206.3 542.7 198.7 571.3 194.8 585.7L191 600L0 600L0 585.7C0 571.3 0 542.7 0 514.2C0 485.7 0 457.3 0 428.8C0 400.3 0 371.7 0 343C0 314.3 0 285.7 0 257C0 228.3 0 199.7 0 171.2C0 142.7 0 114.3 0 85.8C0 57.3 0 28.7 0 14.3L0 0Z" fill="#0b0e2e"></path><path d="M90 0L98.8 14.3C107.7 28.7 125.3 57.3 132.3 85.8C139.3 114.3 135.7 142.7 141.7 171.2C147.7 199.7 163.3 228.3 170.8 257C178.3 285.7 177.7 314.3 177.5 343C177.3 371.7 177.7 400.3 157.7 428.8C137.7 457.3 97.3 485.7 92.7 514.2C88 542.7 119 571.3 134.5 585.7L150 600L0 600L0 585.7C0 571.3 0 542.7 0 514.2C0 485.7 0 457.3 0 428.8C0 400.3 0 371.7 0 343C0 314.3 0 285.7 0 257C0 228.3 0 199.7 0 171.2C0 142.7 0 114.3 0 85.8C0 57.3 0 28.7 0 14.3L0 0Z" fill="#0b0e2e"></path></svg>