<svg id="visual" viewBox="0 0 900 600" width="900" height="600" xmlns="http://www.w3.org/2000/svg" xmlns:xlink="http://www.w3.org/1999/xlink" version="1.1"><rect x="0" y="0" width="900" height="600" fill="#001220"></rect><defs><linearGradient id="grad1_0" x1="33.3%" y1="0%" x2="100%" y2="100%"><stop offset="20%" stop-color="#001220" stop-opacity="1"></stop><stop offset="80%" stop-color="#001220" stop-opacity="1"></stop></linearGradient></defs><defs><linearGradient id="grad2_0" x1="0%" y1="0%" x2="66.7%" y2="100%"><stop offset="20%" stop-color="#001220" stop-opacity="1"></stop><stop offset="80%" stop-color="#001220" stop-opacity="1"></stop></linearGradient></defs><g transform="translate(900, 0)"><path d="M0 297.5C-37.1 279.7 -74.2 261.9 -98.7 238.4C-123.3 214.8 -135.3 185.6 -166.9 166.9C-198.5 148.1 -249.8 139.9 -274.8 113.8C-299.9 87.8 -298.7 43.9 -297.5 0L0 0Z" fill="#17123b"></path></g><g transform="translate(0, 600)"><path d="M0 -297.5C46.5 -301 93.1 -304.5 113.8 -274.8C134.6 -245.1 129.6 -182.1 152 -152C174.5 -121.9 224.3 -124.7 253.1 -104.9C282 -85 289.7 -42.5 297.5 0L0 0Z" fill="#17123b"></path></g></svg>