<?xml version="1.0" standalone="no"?>
<svg xmlns:xlink="http://www.w3.org/1999/xlink" id="wave" style="transform:rotate(0deg); transition: 0.3s" viewBox="0 0 1440 490" version="1.1" xmlns="http://www.w3.org/2000/svg"><defs><linearGradient id="sw-gradient-0" x1="0" x2="0" y1="1" y2="0"><stop stop-color="rgba(25.365, 17.5, 14.974, 1)" offset="0%"/><stop stop-color="rgba(48.601, 30.441, 93.668, 1)" offset="100%"/></linearGradient></defs><path style="transform:translate(0, 0px); opacity:1" fill="url(#sw-gradient-0)" d="M0,294L34.3,277.7C68.6,261,137,229,206,204.2C274.3,180,343,163,411,163.3C480,163,549,180,617,204.2C685.7,229,754,261,823,245C891.4,229,960,163,1029,147C1097.1,131,1166,163,1234,155.2C1302.9,147,1371,98,1440,89.8C1508.6,82,1577,114,1646,147C1714.3,180,1783,212,1851,253.2C1920,294,1989,343,2057,367.5C2125.7,392,2194,392,2263,334.8C2331.4,278,2400,163,2469,130.7C2537.1,98,2606,147,2674,204.2C2742.9,261,2811,327,2880,351.2C2948.6,376,3017,359,3086,367.5C3154.3,376,3223,408,3291,383.8C3360,359,3429,278,3497,228.7C3565.7,180,3634,163,3703,187.8C3771.4,212,3840,278,3909,310.3C3977.1,343,4046,343,4114,334.8C4182.9,327,4251,310,4320,326.7C4388.6,343,4457,392,4526,343C4594.3,294,4663,147,4731,138.8C4800,131,4869,261,4903,326.7L4937.1,392L4937.1,490L4902.9,490C4868.6,490,4800,490,4731,490C4662.9,490,4594,490,4526,490C4457.1,490,4389,490,4320,490C4251.4,490,4183,490,4114,490C4045.7,490,3977,490,3909,490C3840,490,3771,490,3703,490C3634.3,490,3566,490,3497,490C3428.6,490,3360,490,3291,490C3222.9,490,3154,490,3086,490C3017.1,490,2949,490,2880,490C2811.4,490,2743,490,2674,490C2605.7,490,2537,490,2469,490C2400,490,2331,490,2263,490C2194.3,490,2126,490,2057,490C1988.6,490,1920,490,1851,490C1782.9,490,1714,490,1646,490C1577.1,490,1509,490,1440,490C1371.4,490,1303,490,1234,490C1165.7,490,1097,490,1029,490C960,490,891,490,823,490C754.3,490,686,490,617,490C548.6,490,480,490,411,490C342.9,490,274,490,206,490C137.1,490,69,490,34,490L0,490Z"/></svg>