<svg id="visual" viewBox="0 0 900 600" width="900" height="600" xmlns="http://www.w3.org/2000/svg" xmlns:xlink="http://www.w3.org/1999/xlink" version="1.1"><rect x="0" y="0" width="900" height="600" fill="#001220"></rect><defs><linearGradient id="grad1_0" x1="33.3%" y1="100%" x2="100%" y2="0%"><stop offset="20%" stop-color="#001220" stop-opacity="1"></stop><stop offset="80%" stop-color="#001220" stop-opacity="1"></stop></linearGradient></defs><defs><linearGradient id="grad2_0" x1="0%" y1="100%" x2="66.7%" y2="0%"><stop offset="20%" stop-color="#001220" stop-opacity="1"></stop><stop offset="80%" stop-color="#001220" stop-opacity="1"></stop></linearGradient></defs><g transform="translate(900, 600)"><path d="M-324.5 0C-323.4 -45.6 -322.2 -91.3 -299.8 -124.2C-277.4 -157.1 -233.6 -177.2 -200.1 -200.1C-166.6 -223 -143.4 -248.6 -111.7 -269.8C-80.1 -291 -40.1 -307.7 0 -324.5L0 0Z" fill="#081c31"></path></g><g transform="translate(0, 0)"><path d="M324.5 0C324.5 46.9 324.5 93.7 299.8 124.2C275.1 154.7 225.5 168.8 192.3 192.3C159.1 215.9 142.2 248.9 112.9 272.5C83.6 296.1 41.8 310.3 0 324.5L0 0Z" fill="#081c31"></path></g></svg>